<?xml version="1.0" standalone="no"?>
<!DOCTYPE svg PUBLIC "-//W3C//DTD SVG 1.1//EN" "http://www.w3.org/Graphics/SVG/1.1/DTD/svg11.dtd" >
<svg xmlns="http://www.w3.org/2000/svg" xmlns:xlink="http://www.w3.org/1999/xlink" version="1.1">
<metadata>
Created by FontForge 20201107 at Thu May  4 19:38:23 2017
 By 
Copyright (c) 2011 by LatinoType Limitada (info@latinotype.com),  with Reserved Font Names "Belgrano"
</metadata>
<defs>
<font id="Belgrano-Regular" horiz-adv-x="792" >
  <font-face 
    font-family="Belgrano"
    font-weight="400"
    font-stretch="normal"
    units-per-em="1000"
    panose-1="2 0 0 0 0 0 0 0 0 0"
    ascent="800"
    descent="-200"
    x-height="498"
    cap-height="706"
    bbox="-106 -279 1314 990"
    underline-thickness="50"
    underline-position="-100"
    unicode-range="U+0020-FB02"
  />
<missing-glyph horiz-adv-x="259" 
 />
    <glyph glyph-name=".notdef" horiz-adv-x="259" 
 />
    <glyph glyph-name=".null" horiz-adv-x="0" 
 />
    <glyph glyph-name="nonmarkingreturn" horiz-adv-x="333" 
 />
    <glyph glyph-name="space" unicode=" " horiz-adv-x="275" 
 />
    <glyph glyph-name="exclam" unicode="!" horiz-adv-x="304" 
d="M187 216h-67l-21 552h114zM192.5 97.5q18.5 -17.5 18.5 -44t-19 -45t-45.5 -18.5t-43.5 18t-17 44t17 44.5t44 18.5t45.5 -17.5z" />
    <glyph glyph-name="quotedbl" unicode="&#x22;" horiz-adv-x="367" 
d="M144 603h-66l-10 228h86zM289 603h-66l-10 228h86z" />
    <glyph glyph-name="numbersign" unicode="#" horiz-adv-x="655" 
d="M523 165h-80l-29 -106h-93l29 106h-121l-29 -106h-93l29 106h-88v71h108l38 136h-68v71h88l34 119h93l-34 -119h121l34 119h93l-34 -119h80v-71h-100l-38 -136h60v-71zM370 236l38 136h-121l-38 -136h121z" />
    <glyph glyph-name="dollar" unicode="$" horiz-adv-x="534" 
d="M309 713q113 -10 164 -44v-137l-59 -2l-23 81q-41 21 -107 21q-135 0 -135 -86q0 -48 36.5 -79.5t113.5 -59.5q188 -69 188 -220q0 -77 -45 -129.5t-132 -64.5l16 -142h-111l16 139q-46 3 -89 16q-67 20 -91 41v143h60l28 -93q39 -31 127 -31q57 0 91.5 30t34.5 75.5
t-37.5 86t-128.5 74.5q-172 65 -172 182q0 87 50 137.5t127 60.5l-16 145h111z" />
    <glyph glyph-name="percent" unicode="%" horiz-adv-x="932" 
d="M213 316q-78 0 -127 53.5t-49 144.5t49 146t127 55t128 -55t50 -146t-50 -144.5t-128 -53.5zM214 385q44 0 68.5 37.5t24.5 92t-24.5 92.5t-69.5 38t-69 -38t-24 -92.5t25 -92t69 -37.5zM324 -11h-93l377 726h93zM717 -11q-78 0 -127 53.5t-49 144.5t49 146t127 55
t128 -55t50 -146t-50 -144.5t-128 -53.5zM718 58q44 0 68.5 37.5t24.5 92t-24.5 92.5t-69.5 38t-69 -38t-24 -92.5t25 -92t69 -37.5z" />
    <glyph glyph-name="ampersand" unicode="&#x26;" horiz-adv-x="640" 
d="M465 67q-71 -74 -182.5 -74t-172.5 61.5t-61 140.5q0 93 63 146q49 41 108 65q-68 79 -68 155t47.5 119.5t119.5 43.5q100 0 147 -60q11 -14 15 -23.5t3 -9.5v-113h-62l-17 84q-6 15 -31 28.5t-56 13.5t-51 -23t-20 -59t34.5 -90.5t108.5 -157t89 -122.5q25 40 25 117v20
h73v-20q0 -51 -12.5 -97t-24.5 -66l-13 -21l90 -125h-103zM185 108q42 -34 101 -34q84 0 136 52l-158 221q-46 -23 -71 -44q-50 -41 -50 -101t42 -94z" />
    <glyph glyph-name="quotesingle" unicode="'" horiz-adv-x="222" 
d="M144 603h-66l-10 228h86z" />
    <glyph glyph-name="parenleft" unicode="(" horiz-adv-x="305" 
d="M66 59.5q-16 88.5 -16 183.5t15.5 185.5t37.5 151.5q46 127 81 174l15 22l75 -35q-16 -18 -43.5 -74t-45.5 -109.5t-33 -139.5t-15 -175.5t14 -171t34 -135.5q40 -109 75 -156l14 -19l-75 -35q-18 21 -48 78t-49.5 112t-35.5 143.5z" />
    <glyph glyph-name="parenright" unicode=")" horiz-adv-x="304" 
d="M153 70.5q15 82.5 15 172t-14 174.5t-34 141q-41 114 -75 163l-14 20l75 35q22 -30 50 -85t47.5 -112.5t35.5 -149t16 -186.5t-15.5 -182.5t-37.5 -145.5q-47 -124 -80 -169l-16 -20l-75 35q18 20 44.5 72t44.5 103.5t33 134z" />
    <glyph glyph-name="asterisk" unicode="*" horiz-adv-x="443" 
d="M306 503l-45 -20l-48 127l-79 -107l-40 29l93 103l-135 15l6 48l132 -28l-55 120l44 20l46 -128l82 114l39 -30l-93 -105l137 -15l-6 -47l-136 26z" />
    <glyph glyph-name="plus" unicode="+" horiz-adv-x="497" 
d="M447 312h-163v-163h-71v163h-163v71h163v163h71v-163h163v-71z" />
    <glyph glyph-name="comma" unicode="," horiz-adv-x="267" 
d="M89 -120v48q18 0 32 13.5t14 39.5v8h-5q-25 0 -42 17t-17 42t17 42t47.5 17t47 -26.5t16.5 -67.5q0 -69 -31 -101t-79 -32z" />
    <glyph glyph-name="hyphen" unicode="-" horiz-adv-x="416" 
d="M343 235h-270v63h270v-63z" />
    <glyph glyph-name="period" unicode="." horiz-adv-x="260" 
d="M130 -11q-25 0 -42 17t-17 42t17 42t42 17t42 -17t17 -42t-17 -42t-42 -17z" />
    <glyph glyph-name="slash" unicode="/" horiz-adv-x="443" 
d="M129 -279h-93l279 994h93z" />
    <glyph glyph-name="zero" unicode="0" horiz-adv-x="738" 
d="M593.5 88q-87.5 -98 -225 -98t-224.5 97.5t-87 262.5t87 265t224 100t225 -100t88 -264.5t-87.5 -262.5zM216.5 151q55.5 -81 152 -81t151.5 81t55 199.5t-55 201t-152.5 82.5t-152 -82.5t-54.5 -201t55.5 -199.5z" />
    <glyph glyph-name="one" unicode="1" horiz-adv-x="500" 
d="M485 0h-420v45l159 34v524l-145 -101l-42 67l194 137h94v-627l160 -34v-45z" />
    <glyph glyph-name="two" unicode="2" horiz-adv-x="615" 
d="M553 0h-487v75q56 37 121.5 90.5t112.5 101.5t86 110.5t39 120.5t-38 97t-104 39q-40 0 -70.5 -14t-41.5 -28l-11 -14l-20 -124h-76v153q7 14 27.5 35t43 35.5t62 26t84.5 11.5q115 0 182 -61.5t67 -162.5q0 -53 -30.5 -112.5t-73.5 -107.5t-93 -91q-90 -78 -143 -104
h257l33 111h73v-187z" />
    <glyph glyph-name="three" unicode="3" horiz-adv-x="613" 
d="M63 201h76l20 -89q12 -15 52.5 -28t85.5 -13q73 0 115 33.5t42 89.5q0 136 -240 136v64q102 0 151 29.5t49 101.5q0 49 -31 78.5t-79.5 29.5t-80.5 -10.5t-43 -20.5l-11 -10l-20 -74h-76v103q5 10 27 29t45 31.5t63.5 22.5t86.5 10q104 0 164 -52t60 -137q0 -64 -35 -106
q-31 -36 -54 -47l-11 -5q15 -3 44 -19t47.5 -33.5t33.5 -50t15 -70.5q0 -92 -71 -148t-193 -56q-97 0 -157 32q-51 28 -68 52l-7 9v118z" />
    <glyph glyph-name="four" unicode="4" horiz-adv-x="625" 
d="M583 0h-389v45l159 28v153h-323v76l330 404h94v-404h118v-76h-118v-153l129 -28v-45zM353 302v272l-214 -272h214z" />
    <glyph glyph-name="five" unicode="5" horiz-adv-x="628" 
d="M310 70q72 0 114.5 45t42.5 111.5t-45.5 105.5t-108.5 39q-43 0 -76 -11.5t-45 -22.5l-11 -11h-97v378h457v-177h-63l-33 101h-260v-205q40 30 131 30q115 0 185.5 -65.5t70.5 -165.5t-73.5 -166.5t-190.5 -66.5q-129 0 -208 60q-19 14 -26 23l-8 10v118h76l20 -89
q12 -15 55.5 -28t92.5 -13z" />
    <glyph glyph-name="six" unicode="6" horiz-adv-x="637" 
d="M217 126q46 -56 115 -56t110.5 40t41.5 108.5t-41.5 107.5t-113.5 39q-55 0 -97 -27q-35 -24 -50.5 -40t-16.5 -17q6 -99 52 -155zM560 518h-76l-20 74q-4 5 -12 11.5t-41 18t-75 11.5q-165 0 -174 -257q2 1 19 13.5t36.5 24t53 22t68.5 10.5q103 0 171.5 -61
t68.5 -166.5t-65 -167.5t-188.5 -62t-194 85t-70.5 251q0 194 71.5 292t209.5 98q63 0 125.5 -23.5t92.5 -70.5v-103z" />
    <glyph glyph-name="seven" unicode="7" horiz-adv-x="569" 
d="M293 0h-107q0 151 52 286q51 130 110 214q56 79 90 116l14 15h-305l-33 -136h-73v212h512v-75q-32 -32 -83.5 -110t-86 -148t-62.5 -172.5t-28 -201.5z" />
    <glyph glyph-name="eight" unicode="8" horiz-adv-x="648" 
d="M460 388v-1q30 0 75 -37q23 -19 39 -57t16 -87q0 -96 -73.5 -156.5t-192 -60.5t-192.5 60.5t-74 156.5q0 49 16 87t38 57q44 37 76 37v1q-28 0 -67 38.5t-39 108t60 124.5t182 55.5t182 -55t60 -125t-39.5 -108t-66.5 -38.5zM352 341h-56q-65 0 -106.5 -35t-41.5 -97
t48 -100.5t128 -38.5t127.5 39t47.5 100.5t-41.5 96.5t-105.5 35zM437 444q39 27 39 76.5t-39.5 82t-112.5 32.5t-112.5 -32.5t-39.5 -82.5t40 -77t88 -27h4h42q52 1 91 28z" />
    <glyph glyph-name="nine" unicode="9" horiz-adv-x="637" 
d="M420 578q-46 56 -115 56t-110.5 -40t-41.5 -108.5t41.5 -107.5t113.5 -39q55 0 97 27q35 24 50.5 40t16.5 17q-6 99 -52 155zM77 186h76l20 -74q4 -5 12 -11.5t41 -18t75 -11.5q165 0 174 257l-19 -14q-19 -14 -37 -24.5t-52 -21t-69 -10.5q-103 0 -171.5 61t-68.5 166.5
t65 167.5t188.5 62t194 -85t70.5 -251q0 -194 -71.5 -292t-209.5 -98q-63 0 -125.5 23.5t-92.5 70.5v103z" />
    <glyph glyph-name="colon" unicode=":" horiz-adv-x="264" 
d="M132 -11q-25 0 -42 17t-17 42t17 42t42 17t42 -17t17 -42t-17 -42t-42 -17zM132 394q-25 0 -42 17t-17 42t17 42t42 17t42 -17t17 -42t-17 -42t-42 -17z" />
    <glyph glyph-name="semicolon" unicode=";" horiz-adv-x="283" 
d="M137 394q-25 0 -42 17t-17 42t17 42t42 17t42 -17t17 -42t-17 -42t-42 -17zM96 -120v48q18 0 32 13.5t14 39.5v8h-5q-25 0 -42 17t-17 42t17 42t47.5 17t47 -26.5t16.5 -67.5q0 -69 -31 -101t-79 -32z" />
    <glyph glyph-name="semicolon" unicode="&#x37e;" horiz-adv-x="283" 
d="M137 394q-25 0 -42 17t-17 42t17 42t42 17t42 -17t17 -42t-17 -42t-42 -17zM96 -120v48q18 0 32 13.5t14 39.5v8h-5q-25 0 -42 17t-17 42t17 42t47.5 17t47 -26.5t16.5 -67.5q0 -69 -31 -101t-79 -32z" />
    <glyph glyph-name="less" unicode="&#x3c;" horiz-adv-x="421" 
d="M358 -21l-310 229v81l310 229v-111l-217 -159l217 -158v-111z" />
    <glyph glyph-name="equal" unicode="=" horiz-adv-x="549" 
d="M473 165h-397v71h397v-71zM473 372h-397v71h397v-71z" />
    <glyph glyph-name="greater" unicode="&#x3e;" horiz-adv-x="421" 
d="M373 289v-81l-310 -229v111l217 158l-217 159v111z" />
    <glyph glyph-name="question" unicode="?" horiz-adv-x="519" 
d="M244 177h-95v158q106 0 169 50.5t63 150.5q0 65 -43.5 105t-119.5 41q-57 0 -78 -12l-7 -5l-18 -88h-74v107q3 3 7.5 8.5t21.5 19t36 23.5q51 27 111 27q116 0 185.5 -62.5t69.5 -156.5q0 -65 -23.5 -118t-59.5 -83q-74 -63 -145 -63v-102zM237.5 97.5
q18.5 -17.5 18.5 -44t-19 -45t-45.5 -18.5t-43.5 18t-17 44t17 44.5t44 18.5t45.5 -17.5z" />
    <glyph glyph-name="at" unicode="@" horiz-adv-x="799" 
d="M407 -126q-151 0 -252.5 101.5t-101.5 259t115 274t267.5 116.5t238.5 -78.5t86 -201.5t-68 -195t-153 -72h-20q-40 0 -40 29q0 4 1 9l3 25q0 -3 -11 -17.5t-37 -31.5t-56 -17q-60 0 -102 41.5t-42 131.5t57.5 148t131 58t96.5 -46l6 36h53l-40 -307h22q53 0 94 56.5
t41 153t-69.5 154t-185.5 57.5q-135 0 -226.5 -98.5t-91.5 -227t82 -209.5t202 -81q60 0 110 9t70 19l20 9l27 -57q-10 -5 -28 -13t-77 -21.5t-122 -13.5zM431 391q-50 0 -88 -39.5t-38 -98t25.5 -84t60 -25.5t63.5 29.5t32 57.5l13 103q-3 26 -23.5 41.5t-44.5 15.5z" />
    <glyph glyph-name="A" unicode="A" horiz-adv-x="745" 
d="M764 0h-272v44l82 33l-71 177h-260l-71 -177l80 -33v-44h-262v44l82 33l246 629h103l256 -629l87 -33v-44zM477 322l-106 281l-102 -281h208z" />
    <glyph glyph-name="B" unicode="B" horiz-adv-x="683" 
d="M398 0h-347v44l91 33v552l-91 33v44h293q134 0 198 -78q36 -44 36 -108q0 -94 -64 -143q118 -43 118 -174q0 -54 -22 -95t-58 -64q-70 -44 -154 -44zM243 75h108q92 0 137.5 28t45.5 97t-39 99t-100 30h-152v-254zM244 395h97q139 0 139 124q0 64 -46 88t-137 24h-53
v-236z" />
    <glyph glyph-name="C" unicode="C" horiz-adv-x="669" 
d="M643 68q-105 -79 -249 -79q-135 0 -234 87q-48 42 -77 110.5t-29 155.5t30.5 160t81.5 119q105 95 246 95q106 0 185 -43v-163h-82l-18 104q-20 22 -83 22q-119 0 -187 -83t-68 -208.5t70.5 -200t178.5 -74.5q51 0 101 15t74 30l24 15z" />
    <glyph glyph-name="D" unicode="D" horiz-adv-x="779" 
d="M359 0h-308v44l91 33v552l-91 33v44h309q162 0 263 -96t101 -256t-101.5 -257t-263.5 -97zM243 74h128q108 0 177.5 73.5t69.5 204.5t-70 205.5t-177 74.5h-128v-558z" />
    <glyph glyph-name="E" unicode="E" horiz-adv-x="677" 
d="M617 0h-566v44l91 33v552l-91 33v44h566v-162h-52l-33 86h-289v-238h230l19 58h46v-197h-46l-19 67h-230v-244h289l33 86h52v-162z" />
    <glyph glyph-name="F" unicode="F" horiz-adv-x="655" 
d="M335 0h-283v54l91 33v542l-91 33v44h566v-162h-52l-33 86h-289v-238h230l19 58h46v-197h-46l-19 67h-230v-233l91 -33v-54z" />
    <glyph glyph-name="G" unicode="G" horiz-adv-x="759" 
d="M420 716q102 0 209 -43v-163h-72l-18 104q-54 22 -117 22q-120 0 -191.5 -83.5t-71.5 -208.5t70.5 -199.5t178.5 -74.5q70 0 142 33v159l-99 33v44h283v-44l-91 -33v-194q-68 -51 -164 -70q-42 -9 -96 -9t-114.5 22.5t-108.5 64.5t-77 110.5t-29 155.5t32 160t84 119
q109 95 250 95z" />
    <glyph glyph-name="H" unicode="H" horiz-adv-x="830" 
d="M779 0h-283v44l91 33v249h-344v-249l91 -33v-44h-283v44l91 33v552l-91 33v44h283v-44l-91 -33v-226h344v226l-91 33v44h283v-44l-91 -33v-552l91 -33v-44z" />
    <glyph glyph-name="I" unicode="I" horiz-adv-x="385" 
d="M334 0h-283v44l91 33v552l-91 33v44h283v-44l-91 -33v-552l91 -33v-44z" />
    <glyph glyph-name="J" unicode="J" horiz-adv-x="482" 
d="M255 229v400l-91 33v44h283v-44l-91 -33v-388q0 -124 -48 -188t-163 -64q-37 0 -70 10t-47 20l-15 10l35 72q37 -34 96.5 -34t85 37t25.5 125z" />
    <glyph glyph-name="K" unicode="K" horiz-adv-x="754" 
d="M757 0h-268v48l64 26l-310 266v-263l91 -33v-44h-283v44l91 33v552l-91 33v44h283v-44l-91 -33v-254l269 255l-68 28v48h260v-48l-83 -34l-266 -257l317 -285l85 -34v-48z" />
    <glyph glyph-name="L" unicode="L" horiz-adv-x="637" 
d="M617 0h-566v44l91 33v552l-91 33v44h283v-44l-91 -33v-553h289l33 86h52v-162z" />
    <glyph glyph-name="M" unicode="M" horiz-adv-x="933" 
d="M914 0h-294v54l91 38l-40 503l-152 -595h-104l-152 595l-40 -503l91 -38v-54h-294v57l106 38l60 516l-105 38v57h235l144 -577l7 -16l7 16l144 577h233v-57l-104 -37l61 -517l106 -38v-57z" />
    <glyph glyph-name="N" unicode="N" 
d="M660 0h-92l-325 557v-480l69 -33v-44h-261v44l91 33v552l-91 33v44h205l303 -522v445l-69 33v44h261v-44l-91 -33v-629z" />
    <glyph glyph-name="O" unicode="O" 
d="M395 -10q-140 0 -240.5 99.5t-100.5 261t101 263t240 101.5t241 -101.5t102 -263t-101.5 -261t-241.5 -99.5zM225.5 151q62.5 -81 170 -81t169.5 81t62 199.5t-62 201t-170.5 82.5t-170 -82.5t-61.5 -201t62.5 -199.5z" />
    <glyph glyph-name="P" unicode="P" horiz-adv-x="636" 
d="M334 0h-283v44l91 33v552l-91 33v44h312q92 0 163 -60.5t71 -170t-67 -170t-167 -60.5h-120v-168l91 -33v-44zM244 318h72q78 0 130.5 39t52.5 119q0 155 -183 155h-72v-313z" />
    <glyph glyph-name="Q" unicode="Q" horiz-adv-x="793" 
d="M145.5 95q-90.5 97 -90.5 258t97.5 261.5t244 100.5t244.5 -100.5t98 -264.5q0 -136 -73.5 -228.5t-193.5 -120.5q48 -39 108 -64q92 -38 142 -38l-20 -72q-60 0 -116.5 18t-97.5 47q-68 49 -112 99q-140 7 -230.5 104zM232 147q73 -77 170.5 -77t164 75t66.5 205.5
t-66.5 207t-171.5 76.5t-170.5 -76.5t-65.5 -205t73 -205.5z" />
    <glyph glyph-name="R" unicode="R" horiz-adv-x="705" 
d="M701 0h-263v48l64 26l-134 215h-125v-212l91 -33v-44h-283v44l91 33v552l-91 33v44h312q103 0 168.5 -52t65.5 -158q0 -141 -132 -188l145 -227l91 -33v-48zM244 362h116q60 0 99.5 32.5t39.5 102.5t-52 102t-131 32h-72v-269z" />
    <glyph glyph-name="S" unicode="S" horiz-adv-x="566" 
d="M67 190h60l28 -93q39 -31 127 -31q57 0 91.5 30t34.5 75.5t-37.5 86t-128.5 74.5q-172 65 -172 182q0 98 62 149.5t152 51.5q110 0 188 -37q9 -4 17 -9v-137l-59 -2l-23 81q-41 21 -107 21q-135 0 -135 -86q0 -48 36.5 -79.5t113.5 -59.5q188 -69 188 -220
q0 -88 -59 -143t-171 -55q-51 0 -101 13q-73 20 -105 45v143z" />
    <glyph glyph-name="T" unicode="T" horiz-adv-x="692" 
d="M484 0h-283v44l91 33v553h-176l-33 -86h-62v162h650v-162h-62l-33 86h-183v-553l91 -33v-44z" />
    <glyph glyph-name="U" unicode="U" horiz-adv-x="777" 
d="M557 269v360l-91 33v44h283v-44l-91 -33v-348q0 -135 -68 -213.5t-202 -78.5t-201.5 78t-67.5 214v348l-91 33v44h283v-44l-91 -33v-360q0 -94 44.5 -147t124 -53t124 52.5t44.5 147.5z" />
    <glyph glyph-name="V" unicode="V" horiz-adv-x="778" 
d="M-13 706h317v-49l-91 -38l178 -493l5 -11l187 504l-95 38v49h303v-52l-106 -38l-236 -616h-120l-236 616l-106 38v52z" />
    <glyph glyph-name="W" unicode="W" horiz-adv-x="1093" 
d="M-8 706h305v-54l-91 -28l158 -498l132 509l-82 14v57h266v-54l-72 -14l127 -512l158 498l-91 28v54h299v-57l-106 -28l-206 -621h-114l-126 481l-131 -481h-114l-206 621l-106 28v57z" />
    <glyph glyph-name="X" unicode="X" horiz-adv-x="755" 
d="M746 0h-295v57l74 15l-164 223l-150 -223l92 -22v-50h-281v57l99 35l188 276l-193 266l-99 22v50h315v-57l-87 -15l141 -195l144 202l-66 15v50h255v-57l-94 -28l-187 -255l207 -287l101 -22v-57z" />
    <glyph glyph-name="Y" unicode="Y" horiz-adv-x="653" 
d="M478 0h-283v44l91 33v170l-215 374l-82 35v50h277v-57l-87 -10l160 -288l132 273l-83 25v57h259v-57l-80 -23l-180 -350v-199l91 -33v-44z" />
    <glyph glyph-name="Z" unicode="Z" horiz-adv-x="670" 
d="M613 0h-556v76q390 494 435 554h-333l-33 -107h-71v183h558v-76l-436 -554h330l33 111h73v-187z" />
    <glyph glyph-name="bracketleft" unicode="[" horiz-adv-x="360" 
d="M325 -271h-226v1043h226v-76h-135v-891h135v-76z" />
    <glyph glyph-name="backslash" unicode="\" horiz-adv-x="443" 
d="M128 715l279 -994h-93l-279 994h93z" />
    <glyph glyph-name="bracketright" unicode="]" horiz-adv-x="360" 
d="M261 -271h-226v76h135v891h-135v76h226v-1043z" />
    <glyph glyph-name="asciicircum" unicode="^" horiz-adv-x="420" 
d="M370 595h-89l-71 119l-71 -119h-89l111 189h98z" />
    <glyph glyph-name="underscore" unicode="_" horiz-adv-x="673" 
d="M539 -89h-405v77h405v-77z" />
    <glyph glyph-name="grave" unicode="`" horiz-adv-x="318" 
d="M167 784l101 -189h-89l-129 189h117z" />
    <glyph glyph-name="a" unicode="a" horiz-adv-x="562" 
d="M542 68v-60q-39 -19 -86 -19t-67.5 18t-23.5 52q-55 -70 -144.5 -70t-135.5 36t-46 101q0 125 174 144l151 16v29q0 58 -24 88t-76 30q-96 0 -156 -21l-20 -7l-18 64q28 16 85 29.5t106 13.5q107 0 152 -42.5t45 -119.5v-282h84zM157.5 182q-22.5 -18 -22.5 -48.5
t24.5 -48t68.5 -17.5q83 0 136 45v108l-146 -16q-38 -5 -60.5 -23z" />
    <glyph glyph-name="b" unicode="b" horiz-adv-x="587" 
d="M82 693h-84v60q39 19 90.5 19t69.5 -24.5t18 -74.5v-216q48 55 143 55q79 0 146 -54q34 -28 54.5 -79.5t20.5 -119.5t-23 -121.5t-62 -84.5q-79 -63 -184 -63q-49 0 -96.5 14.5t-70.5 29.5l-22 14v645zM271 68q81 0 126.5 47.5t45.5 134.5t-44 135.5t-94 48.5
q-83 0 -129 -49v-300l12 -3q53 -14 83 -14z" />
    <glyph glyph-name="c" unicode="c" horiz-adv-x="523" 
d="M300 -10q-111 0 -182.5 65t-71.5 188q0 68 27 121.5t71 84.5q91 63 199 63q33 0 65 -8t48 -16l16 -9v-118h-61l-14 61q-14 11 -54 11q-86 0 -143 -52t-57 -131t49.5 -130.5t131.5 -51.5q40 0 74.5 8.5t48.5 17.5l14 8l29 -52q-3 -2 -8.5 -6.5t-23.5 -14.5t-38 -18
q-54 -21 -120 -21z" />
    <glyph glyph-name="d" unicode="d" horiz-adv-x="618" 
d="M589 68v-60q-39 -19 -85.5 -19t-67 17t-24.5 50q-46 -66 -144 -66q-79 0 -146 54q-34 28 -54.5 79.5t-20.5 119.5t27 121.5t71 84.5q89 63 197 63q32 0 69 -14v195h-84v60q39 19 90.5 19t69.5 -24.5t18 -74.5v-605h84zM342 433q-89 0 -143.5 -48.5t-54.5 -136.5
t43.5 -136.5t94.5 -48.5q86 0 129 63v292q-45 15 -69 15z" />
    <glyph glyph-name="e" unicode="e" horiz-adv-x="555" 
d="M301 -10q-113 0 -183.5 64.5t-70.5 188.5t72 196.5t168 72.5q228 0 228 -270h-371v-5q0 -71 50 -120t136 -49q37 0 70 8.5t48 17.5l14 8l29 -52q-3 -2 -8.5 -6.5t-23.5 -14.5t-39 -18q-53 -21 -119 -21zM381.5 400.5q-35.5 32.5 -92 32.5t-93.5 -31.5t-48 -95.5h274
q-5 62 -40.5 94.5z" />
    <glyph glyph-name="f" unicode="f" horiz-adv-x="403" 
d="M305 0h-265v43l84 33v343h-78v60l78 32v60q0 99 50.5 150.5t142.5 51.5q36 0 66.5 -10.5t42.5 -21.5l13 -11l-27 -52q-28 16 -83.5 16t-82 -32.5t-26.5 -118.5v-43h161v-81h-161v-343l85 -33v-43z" />
    <glyph glyph-name="g" unicode="g" horiz-adv-x="589" 
d="M503 323q0 -84 -64.5 -135t-155.5 -51q-50 0 -95 17l-46 -83h194q107 0 155 -41t48 -120t-69 -134t-193 -55t-188 48t-64 121.5t72 105.5q-42 14 -42 60l4 25q57 87 69 107q-65 52 -65 135.5t65 136t155 52.5q57 0 110 -24l175 23l-3 -87l-101 9q39 -47 39 -110zM113 -99
q0 -46 42.5 -73.5t119.5 -27.5t122.5 29t45.5 80q0 82 -105 82l-178 -1q-47 -26 -47 -89zM380 245q35 33 35 79t-35 80t-97.5 34t-96.5 -33.5t-34 -80t34.5 -79.5t96.5 -33t97 33z" />
    <glyph glyph-name="h" unicode="h" horiz-adv-x="643" 
d="M627 0h-263v43l80 33v239q0 59 -19.5 88t-70.5 29q-92 0 -147 -55v-301l85 -33v-43h-263v43l84 33v617h-84v60q39 19 90.5 19t69.5 -24.5t18 -74.5v-239q21 30 74.5 54t100.5 24q78 0 117 -43.5t39 -118.5v-274l89 -33v-43z" />
    <glyph glyph-name="i" unicode="i" horiz-adv-x="332" 
d="M306 0h-263v43l84 33v357h-84v60q39 19 90.5 19t69.5 -24.5t18 -74.5v-337l85 -33v-43zM169 604q-33 0 -56 23t-23 56t23 56t56 23t56 -23t23 -56t-23 -56t-56 -23z" />
    <glyph glyph-name="j" unicode="j" horiz-adv-x="291" 
d="M113 -42v475h-84v60q39 19 90.5 19t69.5 -24.5t18 -74.5v-483q0 -99 -50 -150.5t-141 -51.5q-36 0 -66.5 11t-43.5 21l-12 11l27 55q28 -16 84 -16t82 31t26 117zM155 604q-33 0 -56 23t-23 56t23 56t56 23t56 -23t23 -56t-23 -56t-56 -23z" />
    <glyph glyph-name="k" unicode="k" horiz-adv-x="637" 
d="M635 0h-240v43l52 19l-238 234l185 151l-71 10v43h251v-43l-75 -19l-176 -142l237 -234l75 -19v-43zM292 0h-263v43l84 33v617h-84v60q39 19 90.5 19t69.5 -24.5t18 -74.5v-597l85 -33v-43z" />
    <glyph glyph-name="l" unicode="l" horiz-adv-x="320" 
d="M292 0h-263v43l84 33v617h-84v60q39 19 90.5 19t69.5 -24.5t18 -74.5v-597l85 -33v-43z" />
    <glyph glyph-name="m" unicode="m" horiz-adv-x="973" 
d="M957 0h-263v43l80 33v239q0 59 -19.5 88t-70.5 29q-80 0 -137 -57q3 -12 3 -25v-274l89 -33v-43h-263v43l80 33v239q0 59 -19.5 88t-70.5 29q-82 0 -147 -65v-291l85 -33v-43h-263v43l84 33v357h-84v60q39 19 89 19t68.5 -22t20.5 -66q14 18 42 41q59 47 133 47
q110 0 144 -88q73 88 174 88q78 0 117 -43.5t39 -118.5v-274l89 -33v-43z" />
    <glyph glyph-name="n" unicode="n" horiz-adv-x="655" 
d="M639 0h-263v43l80 33v239q0 59 -19.5 88t-70.5 29q-82 0 -147 -65v-291l85 -33v-43h-263v43l84 33v357h-84v60q39 19 89 19t68.5 -22t20.5 -66q14 18 42 41q59 47 135 47t115 -43.5t39 -118.5v-274l89 -33v-43z" />
    <glyph glyph-name="o" unicode="o" horiz-adv-x="606" 
d="M303 -11q-111 0 -184 72.5t-73 188.5t73 189t184 73t184 -73t73 -189t-73 -188.5t-184 -72.5zM303 68q70 0 115 48.5t45 130.5t-45.5 134t-114.5 52t-114.5 -52t-45.5 -134t45 -130.5t115 -48.5z" />
    <glyph glyph-name="p" unicode="p" horiz-adv-x="619" 
d="M291 -271h-263v43l85 33v632h-84v55q39 19 85.5 19t66.5 -17t24 -50q49 68 146 68q79 0 146 -54q34 -28 54.5 -79.5t20.5 -119.5t-23 -121.5t-62 -84.5q-79 -63 -184 -63q-42 0 -96 14v-199l84 -33v-43zM303 69q81 0 126.5 48t45.5 134t-44 134.5t-94 48.5
q-87 0 -130 -55v-292q56 -18 96 -18z" />
    <glyph glyph-name="q" unicode="q" horiz-adv-x="587" 
d="M590 -271h-263v43l84 33v250q-47 -65 -143 -65q-79 0 -146 54q-34 28 -54.5 79.5t-20.5 119.5t27 121.5t71 84.5q89 63 197 63q49 0 90 -14.5t57 -29.5l16 -14v-649l85 -33v-43zM342 433q-89 0 -143.5 -48.5t-54.5 -134t44 -134t94 -48.5q86 0 129 58v292q-45 15 -69 15z
" />
    <glyph glyph-name="r" unicode="r" horiz-adv-x="477" 
d="M304 0h-263v43l84 33v357h-84v60q39 19 88 19t68 -21t21 -62q10 30 41 54q37 29 98 29q27 0 51.5 -7t35.5 -14l12 -7v-118h-60l-13 60q-6 6 -33 6t-52 -7.5t-39 -18.5q-28 -24 -40 -49v-281l85 -33v-43z" />
    <glyph glyph-name="s" unicode="s" horiz-adv-x="478" 
d="M415 357h-63l-14 50q-26 25 -80 25t-83.5 -14t-29.5 -37.5t22 -44t45 -30.5t82 -30t96.5 -53t37.5 -87q0 -72 -52.5 -109.5t-120 -37.5t-116 17t-69.5 34l-20 17v107h60l21 -62q1 -3 16 -10q47 -24 94 -24t72 14.5t25 41t-28 50.5t-93.5 43.5t-110 57t-44.5 87.5
q0 75 52.5 112.5t135.5 37.5q41 0 82 -10t62 -20l21 -10v-115z" />
    <glyph glyph-name="t" unicode="t" horiz-adv-x="408" 
d="M213 102q26 -31 79 -31t87 16l20 -50q-4 -5 -11.5 -13t-37.5 -21.5t-66 -13.5q-91 0 -141 51.5t-50 150.5v230h-53v59l96 96h51v-76h168v-79h-168v-202q0 -86 26 -117z" />
    <glyph glyph-name="u" unicode="u" horiz-adv-x="636" 
d="M608 68v-60q-39 -19 -88 -19t-68 20.5t-22 60.5q-13 -15 -30 -30t-56.5 -33t-82.5 -18q-78 0 -117 43.5t-39 118.5v282h-84v60q39 19 90.5 19t69.5 -24.5t18 -74.5v-227q0 -59 19.5 -88t70.5 -29t87 19.5t54 40.5v304h-84v60q39 19 90.5 19t69.5 -24.5t18 -74.5v-345h84z
" />
    <glyph glyph-name="v" unicode="v" horiz-adv-x="684" 
d="M30 499h255v-44l-68 -24l130 -332l125 332l-68 24v44h250v-44l-80 -26l-182 -429h-100l-182 429l-80 26v44z" />
    <glyph glyph-name="w" unicode="w" horiz-adv-x="907" 
d="M3 499h255v-44l-68 -24l107 -337l103 337l-68 24v44h255v-44l-79 -26l107 -334l103 336l-68 24v44h250v-44l-80 -26l-155 -429h-100l-113 334l-105 -334h-100l-164 429l-80 26v44z" />
    <glyph glyph-name="x" unicode="x" horiz-adv-x="620" 
d="M596 -2h-250v44l68 24l-109 140l-99 -140l68 -24v-44h-250v44l80 26l145 179l-145 181l-80 26v44h250v-44l-68 -24l102 -137l106 137l-68 24v44h250v-44l-80 -26l-152 -186l152 -174l80 -26v-44z" />
    <glyph glyph-name="y" unicode="y" horiz-adv-x="628" 
d="M-1 499h260v-44l-68 -24l130 -329l120 329l-68 24v44h250v-44l-80 -26l-224 -535q-32 -76 -79.5 -121t-126.5 -45q-36 0 -63.5 11t-36.5 21l-9 11l27 55q30 -16 82 -16q90 0 138 128l23 61l-195 430l-80 26v44z" />
    <glyph glyph-name="z" unicode="z" horiz-adv-x="520" 
d="M472 0h-425v68l306 351h-221l-19 -58h-57v137h402v-79l-291 -337h234l19 60h52v-142z" />
    <glyph glyph-name="braceleft" unicode="{" horiz-adv-x="334" 
d="M294 -195v-77q-80 0 -132.5 40.5t-52.5 135.5v234q0 33 -19 50t-45 17h-10v72h10q26 0 45 17t19 50v252q0 101 58 140q52 36 127 36v-76q-102 0 -102 -112v-259q0 -29 -10 -49q-16 -30 -38 -35q19 -3 33.5 -30t14.5 -54v-240q0 -112 102 -112z" />
    <glyph glyph-name="bar" unicode="|" horiz-adv-x="281" 
d="M182 -279h-83v1051h83v-1051z" />
    <glyph glyph-name="braceright" unicode="}" horiz-adv-x="334" 
d="M225 138v-234q0 -95 -52.5 -135.5t-132.5 -40.5v77q102 0 102 112v240q0 27 10 47q17 34 38 37q-22 5 -35 30t-13 54v259q0 112 -102 112v76q75 0 127 -36q58 -39 58 -140v-252q0 -33 19 -50t45 -17h10v-72h-10q-26 0 -45 -17t-19 -50z" />
    <glyph glyph-name="asciitilde" unicode="~" horiz-adv-x="506" 
d="M378 332q-33 -21 -61.5 -21t-72 26t-60.5 26q-31 0 -70 -34l-12 -11l-37 40q-2 0 16 22t50.5 43.5t61 21.5t72 -26t61.5 -26q30 0 68 34l13 11l40 -42q2 0 -17 -21.5t-52 -42.5z" />
    <glyph glyph-name="exclamdown" unicode="&#xa1;" horiz-adv-x="280" 
d="M173 285l26 -552h-114l21 552h67zM178 492.5q19 -18.5 19 -45t-18.5 -44t-45.5 -17.5t-44 18.5t-17 44.5t17 44t43.5 18t45.5 -18.5z" />
    <glyph glyph-name="cent" unicode="&#xa2;" horiz-adv-x="525" 
d="M327 -90h-83v84q-85 14 -137.5 77.5t-52.5 168.5t54 169.5t136 88.5v108h83v-94h9q32 0 63 -8t46 -16l15 -9l-28 -75q-27 29 -96 29h-9v-365q75 2 115 18l14 6l27 -42q-22 -19 -67 -36.5t-89 -21.5v-82zM176 347.5q-25 -43.5 -25 -101t24.5 -101.5t68.5 -64v330
q-43 -20 -68 -63.5z" />
    <glyph glyph-name="sterling" unicode="&#xa3;" horiz-adv-x="501" 
d="M232 177q0 -68 -13 -87q18 0 50.5 -9.5t59.5 -9.5t50.5 9.5t32.5 19.5l8 9l36 -64q-6 -6 -17 -15.5t-46 -25t-65 -15.5t-79.5 15t-76.5 15q-57 0 -104 -14l-16 -5v43q3 1 9 2.5t20.5 11.5t25.5 25q29 38 29 108v229h-78v60l78 32v60q0 99 50.5 150.5t142.5 51.5
q36 0 66.5 -10.5t42.5 -21.5l13 -11l-27 -52q-28 16 -83.5 16t-82 -32.5t-26.5 -118.5v-43h161v-81h-161v-242z" />
    <glyph glyph-name="currency" unicode="&#xa4;" horiz-adv-x="585" 
d="M400 142q-47 -30 -106 -30t-108 32l-66 -66l-60 60l66 66q-31 48 -31 105t29 107l-65 65l63 63l64 -65q49 33 107.5 33t108.5 -32l63 63l60 -60l-62 -63q32 -50 32 -108.5t-34 -110.5l64 -63l-60 -60zM372.5 234q32.5 32 32.5 77.5t-32.5 78t-78 32.5t-77.5 -32.5
t-32 -78t32 -77.5t77.5 -32t78 32z" />
    <glyph glyph-name="yen" unicode="&#xa5;" horiz-adv-x="726" 
d="M522 0h-283v44l91 33v84h-139v71h139v15l-49 85h-125v71h84l-125 218l-82 35v50h277v-57l-87 -10l160 -288l132 273l-83 25v57h259v-57l-80 -23l-115 -223h89v-71h-125l-29 -56v-44h128v-71h-128v-84l91 -33v-44z" />
    <glyph glyph-name="brokenbar" unicode="&#xa6;" horiz-adv-x="285" 
d="M184 -279h-83v459h83v-459zM184 369h-83v403h83v-403z" />
    <glyph glyph-name="section" unicode="&#xa7;" horiz-adv-x="565" 
d="M502 187q0 -71 -39 -121q39 -52 39 -121q0 -88 -59 -143t-171 -55q-51 0 -101 13q-73 20 -105 45v143h60l28 -93q39 -31 127 -31q57 0 91.5 30t34.5 75.5t-37.5 86t-129.5 74.5q-171 65 -171 182q0 82 47 134q-47 47 -47 108q0 98 62 149.5t152 51.5q110 0 189 -37
q8 -4 16 -9v-137l-59 -2l-23 81q-41 21 -106 21q-136 0 -136 -86q0 -48 36.5 -79.5t113.5 -59.5q188 -69 188 -220zM164 304q0 -48 36.5 -79.5t100 -55t96.5 -44.5q10 20 10 40q0 52 -37.5 92.5t-141.5 79.5q-24 9 -44 19q-20 -20 -20 -52z" />
    <glyph glyph-name="dieresis" unicode="&#xa8;" horiz-adv-x="437" 
d="M171 637q0 -25 -17.5 -42.5t-43.5 -17.5t-43 17.5t-17 43t17.5 43t43 17.5t43 -18t17.5 -43zM387 637q0 -25 -17.5 -42.5t-43.5 -17.5t-43 17.5t-17 43t17.5 43t43 17.5t43 -18t17.5 -43z" />
    <glyph glyph-name="copyright" unicode="&#xa9;" horiz-adv-x="762" 
d="M705 348q0 -131 -96.5 -227.5t-227.5 -96.5t-227.5 96.5t-96.5 227.5t96.5 227.5t227.5 96.5t227.5 -96.5t96.5 -227.5zM381 88q108 0 184 76t76 184t-76 184t-184 76t-184 -76t-76 -184t76 -184t184 -76zM385 171q-71 0 -123 46t-52 131.5t55 135.5t129 50q19 0 31 -3
l19 -5q7 -2 13.5 -5t12 -5.5t9.5 -4.5t13 -8v-67h-46l-9 35q-10 11 -42 11q-55 0 -86 -38t-31 -94.5t32.5 -90t81.5 -33.5q46 0 79 20l11 6l28 -42q-19 -15 -54 -27t-71 -12z" />
    <glyph glyph-name="ordfeminine" unicode="&#xaa;" horiz-adv-x="394" 
d="M332 481v-43q-21 -10 -46 -10q-48 0 -51 38q-29 -38 -78 -38t-73.5 19.5t-24.5 55.5q0 73 100 84l75 9v11q0 26 -12 39.5t-39 13.5q-50 0 -81 -12l-11 -4l-10 48q43 23 102 23q113 0 113 -89v-145h36zM162 544q-35 -5 -35 -31.5t38 -26.5t69 22v45z" />
    <glyph glyph-name="guillemotleft" unicode="&#xab;" horiz-adv-x="608" 
d="M282 -21l-235 229v81l235 229v-111l-154 -159l154 -158v-111zM545 -21l-235 229v81l235 229v-111l-154 -159l154 -158v-111z" />
    <glyph glyph-name="logicalnot" unicode="&#xac;" horiz-adv-x="548" 
d="M466 217h-71v163h-326v71h397v-234z" />
    <glyph glyph-name="uni00AD" unicode="&#xad;" horiz-adv-x="336" 
d="M263 235h-190v63h190v-63z" />
    <glyph glyph-name="registered" unicode="&#xae;" horiz-adv-x="762" 
d="M705 348q0 -131 -96.5 -227.5t-227.5 -96.5t-227.5 96.5t-96.5 227.5t96.5 227.5t227.5 96.5t227.5 -96.5t96.5 -227.5zM381 88q108 0 184 76t76 184t-76 184t-184 76t-184 -76t-76 -184t76 -184t184 -76zM553 176h-141v34l32 13l-67 98h-43v-96l36 -17v-32h-142v32
l46 17v256l-46 16v32h156q51 0 84 -26t33 -79q0 -71 -66 -94l73 -103l45 -17v-34zM335 372h48q25 0 42 13.5t17 39.5t-23.5 38.5t-57.5 12.5h-26v-104z" />
    <glyph glyph-name="degree" unicode="&#xb0;" horiz-adv-x="363" 
d="M307 587q0 -52 -37 -88.5t-89 -36.5t-88 36.5t-36 88.5t36 89t88 37t89 -37t37 -89zM258 587q0 32 -22.5 54.5t-54 22.5t-53.5 -22.5t-22 -54.5t22 -54t53.5 -22t54 22t22.5 54z" />
    <glyph glyph-name="plusminus" unicode="&#xb1;" horiz-adv-x="551" 
d="M474 355h-163v-163h-71v163h-163v71h163v163h71v-163h163v-71zM474 62h-397v71h397v-71z" />
    <glyph glyph-name="twosuperior" unicode="&#xb2;" horiz-adv-x="423" 
d="M348 320h-271v55q19 9 58 38.5t63.5 53t44.5 55t20 59.5t-17.5 45.5t-42.5 17.5q-44 0 -59 -14l-5 -4l-11 -49h-52v80q3 6 11 15.5t38.5 25t69.5 15.5q70 0 111 -36.5t41 -96.5q0 -33 -21.5 -70t-51.5 -65q-62 -57 -95 -73h103l18 51h48v-103z" />
    <glyph glyph-name="threesuperior" unicode="&#xb3;" horiz-adv-x="422" 
d="M68 454h52l11 -49q11 -18 75 -18q34 0 55 14.5t21 38.5q0 50 -121 50v50q49 0 73.5 14t24.5 48q0 20 -14.5 32.5t-39.5 12.5t-42 -4.5t-25 -13.5l-11 -49h-54v80q4 6 12 15.5t42 25t88 15.5t91 -31t37 -83q0 -24 -14 -43q-19 -26 -41 -34q50 -12 70 -51q8 -16 8 -34
q0 -55 -43.5 -88.5t-117.5 -33.5q-46 0 -80 14t-45 28l-12 13v81z" />
    <glyph glyph-name="acute" unicode="&#xb4;" horiz-adv-x="318" 
d="M139 595h-89l101 189h117z" />
    <glyph glyph-name="mu" unicode="&#xb5;" horiz-adv-x="573" 
d="M514 0h-94v70q-13 -15 -30 -30t-56.5 -33t-78.5 -18t-66 9v-271h-94v773h94v-314q0 -59 19.5 -88t70.5 -29q88 0 141 50v381h94v-500z" />
    <glyph glyph-name="mu" unicode="&#x3bc;" horiz-adv-x="573" 
d="M514 0h-94v70q-13 -15 -30 -30t-56.5 -33t-78.5 -18t-66 9v-271h-94v773h94v-314q0 -59 19.5 -88t70.5 -29q88 0 141 50v381h94v-500z" />
    <glyph glyph-name="paragraph" unicode="&#xb6;" horiz-adv-x="787" 
d="M319 318h47v313h-47q-183 0 -183 -155q0 -80 52.5 -119t130.5 -39zM654 0h-101v631h-85v-631h-101v245h-95q-100 0 -167 60.5t-67 170t71 170t163 60.5h473v-34l-91 -33v-639z" />
    <glyph glyph-name="periodcentered" unicode="&#xb7;" horiz-adv-x="262" 
d="M131 328q-25 0 -42 17t-17 42t17 42t42 17t42 -17t17 -42t-17 -42t-42 -17z" />
    <glyph glyph-name="cedilla" unicode="&#xb8;" horiz-adv-x="272" 
d="M71 -111q23 -25 62 -25t39 34q0 38 -72 38l26 68h47l-16 -38q27 -1 46 -19t19 -52.5t-25.5 -54.5t-57.5 -20q-55 0 -81 26l-8 8z" />
    <glyph glyph-name="onesuperior" unicode="&#xb9;" horiz-adv-x="406" 
d="M352 320h-262v50l88 18v228l-80 -55l-44 55l127 92h83v-320l88 -18v-50z" />
    <glyph glyph-name="ordmasculine" unicode="&#xba;" horiz-adv-x="412" 
d="M314.5 675.5q42.5 -39.5 42.5 -104t-43 -104t-108 -39.5t-108 39.5t-43 104t42.5 104t108.5 39.5t108.5 -39.5zM206 478q37 0 60 25t23 67t-23.5 68.5t-59.5 26.5t-59.5 -26.5t-23.5 -68.5t23 -67t60 -25z" />
    <glyph glyph-name="guillemotright" unicode="&#xbb;" horiz-adv-x="608" 
d="M561 289v-81l-235 -229v111l154 158l-154 159v111zM298 289v-81l-235 -229v111l154 158l-154 159v111z" />
    <glyph glyph-name="onequarter" unicode="&#xbc;" horiz-adv-x="856" 
d="M303 -11h-93l377 726h93zM337 320h-262v50l88 18v228l-80 -55l-44 55l127 92h83v-320l88 -18v-50zM820 -1h-262v50l88 18v56h-161v62l165 202h82v-202h65v-62h-65v-56l88 -18v-50zM646 185v96l-78 -96h78z" />
    <glyph glyph-name="onehalf" unicode="&#xbd;" horiz-adv-x="866" 
d="M301 -11h-93l377 726h93zM335 320h-262v50l88 18v228l-80 -55l-44 55l127 92h83v-320l88 -18v-50zM817 0h-271v57q18 9 57.5 38t64 52t44.5 54.5t20 59.5t-17.5 45.5t-42.5 17.5q-44 0 -59 -14l-5 -4l-11 -49h-52v80q3 6 11 15.5t38.5 25t69.5 15.5q70 0 111 -36.5
t41 -96.5q0 -33 -21.5 -70t-52.5 -65q-61 -57 -94 -73h103l18 51h48v-103z" />
    <glyph glyph-name="threequarters" unicode="&#xbe;" horiz-adv-x="869" 
d="M833 -1h-262v50l88 18v56h-161v62l165 202h82v-202h65v-62h-65v-56l88 -18v-50zM316 -11h-93l377 726h93zM52 454h52l11 -49q11 -18 75 -18q34 0 55 14.5t21 38.5q0 50 -121 50v50q49 0 73.5 14t24.5 48q0 20 -14.5 32.5t-39.5 12.5t-42 -4.5t-25 -13.5l-11 -49h-54v80
q4 6 12 15.5t42 25t88 15.5t91 -31t37 -83q0 -24 -14 -43q-19 -26 -41 -34q50 -12 70 -51q8 -16 8 -34q0 -55 -43.5 -88.5t-117.5 -33.5q-46 0 -80 14t-45 28l-12 13v81zM659 185v96l-78 -96h78z" />
    <glyph glyph-name="questiondown" unicode="&#xbf;" horiz-adv-x="501" 
d="M466 -80v-102q-3 -3 -7.5 -8.5t-21.5 -19t-36 -23.5q-51 -27 -111 -27q-116 0 -185.5 62.5t-69.5 156.5q0 65 23.5 118t59.5 83q74 63 145 63v102h95v-158q-106 0 -169 -50.5t-63 -150.5q0 -65 43.5 -105t119.5 -41q59 0 78 12l7 5l18 83h74zM359 405.5
q-17 -18.5 -44 -18.5t-45.5 17.5t-18.5 44t19 45t45.5 18.5t43.5 -18t17 -44t-17 -44.5z" />
    <glyph glyph-name="Agrave" unicode="&#xc0;" horiz-adv-x="745" 
d="M764 0h-272v44l82 33l-71 177h-260l-71 -177l80 -33v-44h-262v44l82 33l246 629h103l256 -629l87 -33v-44zM477 322l-106 281l-102 -281h208zM328 990l101 -189h-89l-129 189h117z" />
    <glyph glyph-name="Aacute" unicode="&#xc1;" horiz-adv-x="745" 
d="M764 0h-272v44l82 33l-71 177h-260l-71 -177l80 -33v-44h-262v44l82 33l246 629h103l256 -629l87 -33v-44zM477 322l-106 281l-102 -281h208zM417 801h-89l101 189h117z" />
    <glyph glyph-name="Acircumflex" unicode="&#xc2;" horiz-adv-x="745" 
d="M764 0h-272v44l82 33l-71 177h-260l-71 -177l80 -33v-44h-262v44l82 33l246 629h103l256 -629l87 -33v-44zM477 322l-106 281l-102 -281h208zM531 801h-89l-71 119l-71 -119h-89l111 189h98z" />
    <glyph glyph-name="Atilde" unicode="&#xc3;" horiz-adv-x="745" 
d="M764 0h-272v44l82 33l-71 177h-260l-71 -177l80 -33v-44h-262v44l82 33l246 629h103l256 -629l87 -33v-44zM477 322l-106 281l-102 -281h208zM485 823q-33 -21 -61.5 -21t-72 26t-61.5 26q-32 0 -68 -34l-13 -11l-37 40q-2 0 16 21.5t50.5 43.5t61 22t72 -26t60.5 -26
q33 0 70 34l12 11l40 -42q2 0 -17 -21.5t-52 -42.5z" />
    <glyph glyph-name="Adieresis" unicode="&#xc4;" horiz-adv-x="745" 
d="M764 0h-272v44l82 33l-71 177h-260l-71 -177l80 -33v-44h-262v44l82 33l246 629h103l256 -629l87 -33v-44zM477 322l-106 281l-102 -281h208zM327 843q0 -25 -17.5 -42.5t-43.5 -17.5t-43 17.5t-17 43t17.5 43t43 17.5t43 -18t17.5 -43zM543 843q0 -25 -17.5 -42.5
t-43.5 -17.5t-43 17.5t-17 43t17.5 43t43 17.5t43 -18t17.5 -43z" />
    <glyph glyph-name="Aring" unicode="&#xc5;" horiz-adv-x="745" 
d="M764 0h-272v44l82 33l-71 177h-260l-71 -177l80 -33v-44h-262v44l82 33l246 629h103l256 -629l87 -33v-44zM477 322l-106 281l-102 -281h208zM375 775q-38 0 -63.5 25.5t-25.5 63.5t25.5 63.5t63.5 25.5t63.5 -25.5t25.5 -63.5t-25.5 -63.5t-63.5 -25.5zM414 864
q0 17 -11 28t-28.5 11t-28 -11t-10.5 -28t10.5 -28t28 -11t28.5 11t11 28z" />
    <glyph glyph-name="AE" unicode="&#xc6;" horiz-adv-x="1025" 
d="M965 0h-566v44l91 33v177h-228l-107 -177l80 -33v-44h-257v44l82 33l374 629h531v-162h-52l-33 86h-289v-238h230l19 58h46v-197h-46l-19 67h-230v-244h289l33 86h52v-162zM490 322v307l-186 -307h186z" />
    <glyph glyph-name="Ccedilla" unicode="&#xc7;" horiz-adv-x="669" 
d="M412 716q106 0 185 -43v-163h-82l-18 104q-20 22 -83 22q-119 0 -187 -83t-68 -208.5t70.5 -200t178.5 -74.5q51 0 101 15t74 30l24 15l36 -62q-4 -3 -10.5 -8.5t-30 -18.5t-50.5 -23q-66 -27 -153 -29l-9 -23q27 -1 46 -19t19 -52.5t-25.5 -54.5t-57.5 -20q-55 0 -80 26
l-9 8l21 35q23 -25 62 -25t39 34q0 38 -72 38l21 55q-127 14 -213.5 104.5t-86.5 243.5q0 90 30.5 163t81.5 119q105 95 246 95z" />
    <glyph glyph-name="Egrave" unicode="&#xc8;" horiz-adv-x="677" 
d="M617 0h-566v44l91 33v552l-91 33v44h566v-162h-52l-33 86h-289v-238h230l19 58h46v-197h-46l-19 67h-230v-244h289l33 86h52v-162zM370 990l101 -189h-89l-129 189h117z" />
    <glyph glyph-name="Eacute" unicode="&#xc9;" horiz-adv-x="677" 
d="M617 0h-566v44l91 33v552l-91 33v44h566v-162h-52l-33 86h-289v-238h230l19 58h46v-197h-46l-19 67h-230v-244h289l33 86h52v-162zM375 801h-89l101 189h117z" />
    <glyph glyph-name="Ecircumflex" unicode="&#xca;" horiz-adv-x="677" 
d="M617 0h-566v44l91 33v552l-91 33v44h566v-162h-52l-33 86h-289v-238h230l19 58h46v-197h-46l-19 67h-230v-244h289l33 86h52v-162zM495 801h-89l-71 119l-71 -119h-89l111 189h98z" />
    <glyph glyph-name="Edieresis" unicode="&#xcb;" horiz-adv-x="677" 
d="M617 0h-566v44l91 33v552l-91 33v44h566v-162h-52l-33 86h-289v-238h230l19 58h46v-197h-46l-19 67h-230v-244h289l33 86h52v-162zM300 843q0 -25 -17.5 -42.5t-43 -17.5t-43 17.5t-17.5 43t17.5 43t42.5 17.5t43 -18t18 -43zM516 843q0 -25 -17.5 -42.5t-43 -17.5
t-43 17.5t-17.5 43t17.5 43t42.5 17.5t43 -18t18 -43z" />
    <glyph glyph-name="Igrave" unicode="&#xcc;" horiz-adv-x="385" 
d="M334 0h-283v44l91 33v552l-91 33v44h283v-44l-91 -33v-552l91 -33v-44zM138 990l101 -189h-89l-129 189h117z" />
    <glyph glyph-name="Iacute" unicode="&#xcd;" horiz-adv-x="385" 
d="M334 0h-283v44l91 33v552l-91 33v44h283v-44l-91 -33v-552l91 -33v-44zM224 801h-89l101 189h117z" />
    <glyph glyph-name="Icircumflex" unicode="&#xce;" horiz-adv-x="385" 
d="M334 0h-283v44l91 33v552l-91 33v44h283v-44l-91 -33v-552l91 -33v-44zM344 801h-89l-71 119l-71 -119h-89l111 189h98z" />
    <glyph glyph-name="Idieresis" unicode="&#xcf;" horiz-adv-x="385" 
d="M334 0h-283v44l91 33v552l-91 33v44h283v-44l-91 -33v-552l91 -33v-44zM141 843q0 -25 -17.5 -42.5t-43.5 -17.5t-43 17.5t-17 43t17.5 43t43 17.5t43 -18t17.5 -43zM357 843q0 -25 -17.5 -42.5t-43.5 -17.5t-43 17.5t-17 43t17.5 43t43 17.5t43 -18t17.5 -43z" />
    <glyph glyph-name="Eth" unicode="&#xd0;" horiz-adv-x="779" 
d="M359 0h-308v44l91 33v552l-91 33v44h309q162 0 263 -96t101 -256t-101.5 -257t-263.5 -97zM243 74h128q108 0 177.5 73.5t69.5 204.5t-70 205.5t-177 74.5h-128v-257h163v-63h-163v-238z" />
    <glyph glyph-name="Ntilde" unicode="&#xd1;" 
d="M660 0h-92l-325 557v-480l69 -33v-44h-261v44l91 33v552l-91 33v44h205l303 -522v445l-69 33v44h261v-44l-91 -33v-629zM530 823q-33 -21 -61.5 -21t-72 26t-60.5 26q-33 0 -70 -34l-12 -11l-37 40q-2 0 16 21.5t50.5 43.5t61 22t72 -26t61.5 -26q32 0 68 34l13 11
l40 -42q2 0 -17 -21.5t-52 -42.5z" />
    <glyph glyph-name="Ograve" unicode="&#xd2;" 
d="M395 -10q-140 0 -240.5 99.5t-100.5 261t101 263t240 101.5t241 -101.5t102 -263t-101.5 -261t-241.5 -99.5zM225.5 151q62.5 -81 170 -81t169.5 81t62 199.5t-62 201t-170.5 82.5t-170 -82.5t-61.5 -201t62.5 -199.5zM415 990l101 -189h-89l-129 189h117z" />
    <glyph glyph-name="Oacute" unicode="&#xd3;" 
d="M395 -10q-140 0 -240.5 99.5t-100.5 261t101 263t240 101.5t241 -101.5t102 -263t-101.5 -261t-241.5 -99.5zM225.5 151q62.5 -81 170 -81t169.5 81t62 199.5t-62 201t-170.5 82.5t-170 -82.5t-61.5 -201t62.5 -199.5zM420 801h-89l101 189h117z" />
    <glyph glyph-name="Ocircumflex" unicode="&#xd4;" 
d="M395 -10q-140 0 -240.5 99.5t-100.5 261t101 263t240 101.5t241 -101.5t102 -263t-101.5 -261t-241.5 -99.5zM225.5 151q62.5 -81 170 -81t169.5 81t62 199.5t-62 201t-170.5 82.5t-170 -82.5t-61.5 -201t62.5 -199.5zM539 801h-89l-71 119l-71 -119h-89l111 189h98z" />
    <glyph glyph-name="Otilde" unicode="&#xd5;" 
d="M395 -10q-140 0 -240.5 99.5t-100.5 261t101 263t240 101.5t241 -101.5t102 -263t-101.5 -261t-241.5 -99.5zM225.5 151q62.5 -81 170 -81t169.5 81t62 199.5t-62 201t-170.5 82.5t-170 -82.5t-61.5 -201t62.5 -199.5zM514 823q-33 -21 -61.5 -21t-72 26t-60.5 26
q-33 0 -70 -34l-12 -11l-37 40q-2 0 16 21.5t50.5 43.5t61 22t72 -26t61.5 -26q32 0 68 34l13 11l40 -42q2 0 -17 -21.5t-52 -42.5z" />
    <glyph glyph-name="Odieresis" unicode="&#xd6;" 
d="M395 -10q-140 0 -240.5 99.5t-100.5 261t101 263t240 101.5t241 -101.5t102 -263t-101.5 -261t-241.5 -99.5zM225.5 151q62.5 -81 170 -81t169.5 81t62 199.5t-62 201t-170.5 82.5t-170 -82.5t-61.5 -201t62.5 -199.5zM345 843q0 -25 -17.5 -42.5t-43.5 -17.5t-43 17.5
t-17 43t17.5 43t43 17.5t43 -18t17.5 -43zM561 843q0 -25 -17.5 -42.5t-43.5 -17.5t-43 17.5t-17 43t17.5 43t43 17.5t43 -18t17.5 -43z" />
    <glyph glyph-name="multiply" unicode="&#xd7;" horiz-adv-x="469" 
d="M350 182l-116 115l-115 -115l-50 50l115 115l-115 116l50 50l115 -115l116 115l50 -50l-115 -116l115 -115z" />
    <glyph glyph-name="Oslash" unicode="&#xd8;" 
d="M175 70q-121 103 -121 272.5t101 271t240 101.5q70 0 142 -32l19 32h93l-44 -74q62 -49 97.5 -124t35.5 -167q0 -161 -101.5 -260.5t-241.5 -99.5q-82 0 -153 36l-22 -37h-93zM396 70q110 0 173 81t63 205.5t-73 205.5l-275 -464q50 -28 112 -28zM394 634
q-111 0 -173.5 -82.5t-62.5 -202.5t64 -199l272 461q-48 23 -100 23z" />
    <glyph glyph-name="Ugrave" unicode="&#xd9;" horiz-adv-x="777" 
d="M557 269v360l-91 33v44h283v-44l-91 -33v-348q0 -135 -68 -213.5t-202 -78.5t-201.5 78t-67.5 214v348l-91 33v44h283v-44l-91 -33v-360q0 -94 44.5 -147t124 -53t124 52.5t44.5 147.5zM416 990l101 -189h-89l-129 189h117z" />
    <glyph glyph-name="Uacute" unicode="&#xda;" horiz-adv-x="777" 
d="M557 269v360l-91 33v44h283v-44l-91 -33v-348q0 -135 -68 -213.5t-202 -78.5t-201.5 78t-67.5 214v348l-91 33v44h283v-44l-91 -33v-360q0 -94 44.5 -147t124 -53t124 52.5t44.5 147.5zM421 801h-89l101 189h117z" />
    <glyph glyph-name="Ucircumflex" unicode="&#xdb;" horiz-adv-x="777" 
d="M557 269v360l-91 33v44h283v-44l-91 -33v-348q0 -135 -68 -213.5t-202 -78.5t-201.5 78t-67.5 214v348l-91 33v44h283v-44l-91 -33v-360q0 -94 44.5 -147t124 -53t124 52.5t44.5 147.5zM540 801h-89l-71 119l-71 -119h-89l111 189h98z" />
    <glyph glyph-name="Udieresis" unicode="&#xdc;" horiz-adv-x="777" 
d="M557 269v360l-91 33v44h283v-44l-91 -33v-348q0 -135 -68 -213.5t-202 -78.5t-201.5 78t-67.5 214v348l-91 33v44h283v-44l-91 -33v-360q0 -94 44.5 -147t124 -53t124 52.5t44.5 147.5zM346 843q0 -25 -17.5 -42.5t-43 -17.5t-43 17.5t-17.5 43t17.5 43t42.5 17.5t43 -18
t18 -43zM562 843q0 -25 -17.5 -42.5t-43 -17.5t-43 17.5t-17.5 43t17.5 43t42.5 17.5t43 -18t18 -43z" />
    <glyph glyph-name="Yacute" unicode="&#xdd;" horiz-adv-x="653" 
d="M478 0h-283v44l91 33v170l-215 374l-82 35v50h277v-57l-87 -10l160 -288l132 273l-83 25v57h259v-57l-80 -23l-180 -350v-199l91 -33v-44zM335 801h-89l101 189h117z" />
    <glyph glyph-name="Thorn" unicode="&#xde;" horiz-adv-x="588" 
d="M311 0h-263v43l85 33v622h-84v60q39 19 90.5 19t69.5 -24.5t18 -74.5v-178h108q55 0 101.5 -16t80.5 -58.5t34 -106.5q0 -86 -68 -132.5t-161 -46.5h-95v-64l84 -33v-43zM227 208h95q62 0 97 28.5t35 83t-36 83.5t-97 29h-94v-224z" />
    <glyph glyph-name="germandbls" unicode="&#xdf;" horiz-adv-x="672" 
d="M291 -147h-265v43l84 33v490h-78v60l78 32v30q0 112 57.5 172t152.5 60t156 -50.5t61 -119.5q0 -83 -45 -131q-19 -21 -38 -38q-44 -41 -44 -76q0 -43 84 -81q35 -16 70 -34t59.5 -45.5t24.5 -61.5q0 -72 -55 -109.5t-139 -37.5q-41 0 -76 17t-49 34l-14 17v97h60l21 -72
q28 -14 70 -14q92 0 92 65q0 36 -82 70q-34 14 -67.5 30t-57.5 42.5t-24 64.5t12.5 66.5t30 45t34.5 32.5q42 41 42 119q0 41 -31.5 67t-87.5 26t-88.5 -39t-32.5 -144v-584l85 -33v-43z" />
    <glyph glyph-name="agrave" unicode="&#xe0;" horiz-adv-x="562" 
d="M542 68v-60q-39 -19 -86 -19t-67.5 18t-23.5 52q-55 -70 -144.5 -70t-135.5 36t-46 101q0 125 174 144l151 16v29q0 58 -24 88t-76 30q-96 0 -156 -21l-20 -7l-18 64q28 16 85 29.5t106 13.5q107 0 152 -42.5t45 -119.5v-282h84zM157.5 182q-22.5 -18 -22.5 -48.5
t24.5 -48t68.5 -17.5q83 0 136 45v108l-146 -16q-38 -5 -60.5 -23zM242 784l101 -189h-89l-129 189h117z" />
    <glyph glyph-name="aacute" unicode="&#xe1;" horiz-adv-x="562" 
d="M542 68v-60q-39 -19 -86 -19t-67.5 18t-23.5 52q-55 -70 -144.5 -70t-135.5 36t-46 101q0 125 174 144l151 16v29q0 58 -24 88t-76 30q-96 0 -156 -21l-20 -7l-18 64q28 16 85 29.5t106 13.5q107 0 152 -42.5t45 -119.5v-282h84zM157.5 182q-22.5 -18 -22.5 -48.5
t24.5 -48t68.5 -17.5q83 0 136 45v108l-146 -16q-38 -5 -60.5 -23zM302 595h-89l101 189h117z" />
    <glyph glyph-name="acircumflex" unicode="&#xe2;" horiz-adv-x="562" 
d="M542 68v-60q-39 -19 -86 -19t-67.5 18t-23.5 52q-55 -70 -144.5 -70t-135.5 36t-46 101q0 125 174 144l151 16v29q0 58 -24 88t-76 30q-96 0 -156 -21l-20 -7l-18 64q28 16 85 29.5t106 13.5q107 0 152 -42.5t45 -119.5v-282h84zM157.5 182q-22.5 -18 -22.5 -48.5
t24.5 -48t68.5 -17.5q83 0 136 45v108l-146 -16q-38 -5 -60.5 -23zM425 595h-89l-71 119l-71 -119h-89l111 189h98z" />
    <glyph glyph-name="atilde" unicode="&#xe3;" horiz-adv-x="562" 
d="M542 68v-60q-39 -19 -86 -19t-67.5 18t-23.5 52q-55 -70 -144.5 -70t-135.5 36t-46 101q0 125 174 144l151 16v29q0 58 -24 88t-76 30q-96 0 -156 -21l-20 -7l-18 64q28 16 85 29.5t106 13.5q107 0 152 -42.5t45 -119.5v-282h84zM157.5 182q-22.5 -18 -22.5 -48.5
t24.5 -48t68.5 -17.5q83 0 136 45v108l-146 -16q-38 -5 -60.5 -23zM412 617q-33 -21 -61.5 -21t-72 26t-60.5 26q-33 0 -70 -34l-12 -11l-37 40q-2 0 16 21.5t50.5 43.5t61 22t72 -26t61.5 -26q32 0 68 34l13 11l40 -42q2 0 -17 -21.5t-52 -42.5z" />
    <glyph glyph-name="adieresis" unicode="&#xe4;" horiz-adv-x="562" 
d="M542 68v-60q-39 -19 -86 -19t-67.5 18t-23.5 52q-55 -70 -144.5 -70t-135.5 36t-46 101q0 125 174 144l151 16v29q0 58 -24 88t-76 30q-96 0 -156 -21l-20 -7l-18 64q28 16 85 29.5t106 13.5q107 0 152 -42.5t45 -119.5v-282h84zM157.5 182q-22.5 -18 -22.5 -48.5
t24.5 -48t68.5 -17.5q83 0 136 45v108l-146 -16q-38 -5 -60.5 -23zM242 637q0 -25 -17.5 -42.5t-43 -17.5t-43 17.5t-17.5 43t17.5 43t42.5 17.5t43 -18t18 -43zM458 637q0 -25 -17.5 -42.5t-43 -17.5t-43 17.5t-17.5 43t17.5 43t42.5 17.5t43 -18t18 -43z" />
    <glyph glyph-name="aring" unicode="&#xe5;" horiz-adv-x="562" 
d="M542 68v-60q-39 -19 -86 -19t-67.5 18t-23.5 52q-55 -70 -144.5 -70t-135.5 36t-46 101q0 125 174 144l151 16v29q0 58 -24 88t-76 30q-96 0 -156 -21l-20 -7l-18 64q28 16 85 29.5t106 13.5q107 0 152 -42.5t45 -119.5v-282h84zM157.5 182q-22.5 -18 -22.5 -48.5
t24.5 -48t68.5 -17.5q83 0 136 45v108l-146 -16q-38 -5 -60.5 -23zM278 569q-38 0 -63.5 25.5t-25.5 63.5t25.5 63.5t63.5 25.5t63.5 -25.5t25.5 -63.5t-25.5 -63.5t-63.5 -25.5zM317 658q0 17 -11 28t-28.5 11t-28 -11t-10.5 -28t10.5 -28t28 -11t28.5 11t11 28z" />
    <glyph glyph-name="ae" unicode="&#xe6;" horiz-adv-x="874" 
d="M620 -10q-145 0 -211 97q-10 -17 -30 -36.5t-65.5 -40.5t-99.5 -21q-83 0 -129 36t-46 101q0 125 174 144l151 16v29q0 58 -24 88t-76 30q-96 0 -156 -21l-20 -7l-18 64q28 16 85 29.5t106 13.5q134 0 176 -73q70 73 169 73q228 0 228 -270h-371v-5q0 -71 50 -120
t136 -49q37 0 70 8.5t47 17.5l15 8l29 -52q-3 -2 -8.5 -6.5t-23.5 -14.5t-38 -18q-54 -21 -120 -21zM157.5 182q-22.5 -18 -22.5 -48.5t24.5 -48t68.5 -17.5q83 0 136 45v108l-146 -16q-38 -5 -60.5 -23zM700.5 400.5q-35.5 32.5 -92 32.5t-93.5 -31.5t-48 -95.5h274
q-5 62 -40.5 94.5z" />
    <glyph glyph-name="ccedilla" unicode="&#xe7;" horiz-adv-x="523" 
d="M221 -111q23 -25 62 -25t39 34q0 38 -72 38l21 56q-100 8 -162.5 72t-62.5 179q0 68 27 121.5t71 84.5q91 63 199 63q33 0 65 -8t48 -16l16 -9v-118h-61l-14 61q-14 11 -54 11q-86 0 -143 -52t-57 -131t49.5 -130.5t131.5 -51.5q40 0 74.5 8.5t48.5 17.5l14 8l29 -52
q-24 -20 -74 -38.5t-99 -20.5l-10 -25q27 -1 46 -19t19 -52.5t-25.5 -54.5t-57.5 -20q-55 0 -81 26l-8 8z" />
    <glyph glyph-name="egrave" unicode="&#xe8;" horiz-adv-x="555" 
d="M301 -10q-113 0 -183.5 64.5t-70.5 188.5t72 196.5t168 72.5q228 0 228 -270h-371v-5q0 -71 50 -120t136 -49q37 0 70 8.5t48 17.5l14 8l29 -52q-3 -2 -8.5 -6.5t-23.5 -14.5t-39 -18q-53 -21 -119 -21zM381.5 400.5q-35.5 32.5 -92 32.5t-93.5 -31.5t-48 -95.5h274
q-5 62 -40.5 94.5zM239 784l101 -189h-89l-129 189h117z" />
    <glyph glyph-name="eacute" unicode="&#xe9;" horiz-adv-x="555" 
d="M301 -10q-113 0 -183.5 64.5t-70.5 188.5t72 196.5t168 72.5q228 0 228 -270h-371v-5q0 -71 50 -120t136 -49q37 0 70 8.5t48 17.5l14 8l29 -52q-3 -2 -8.5 -6.5t-23.5 -14.5t-39 -18q-53 -21 -119 -21zM381.5 400.5q-35.5 32.5 -92 32.5t-93.5 -31.5t-48 -95.5h274
q-5 62 -40.5 94.5zM325 595h-89l101 189h117z" />
    <glyph glyph-name="ecircumflex" unicode="&#xea;" horiz-adv-x="555" 
d="M301 -10q-113 0 -183.5 64.5t-70.5 188.5t72 196.5t168 72.5q228 0 228 -270h-371v-5q0 -71 50 -120t136 -49q37 0 70 8.5t48 17.5l14 8l29 -52q-3 -2 -8.5 -6.5t-23.5 -14.5t-39 -18q-53 -21 -119 -21zM381.5 400.5q-35.5 32.5 -92 32.5t-93.5 -31.5t-48 -95.5h274
q-5 62 -40.5 94.5zM451 595h-89l-71 119l-71 -119h-89l111 189h98z" />
    <glyph glyph-name="edieresis" unicode="&#xeb;" horiz-adv-x="555" 
d="M301 -10q-113 0 -183.5 64.5t-70.5 188.5t72 196.5t168 72.5q228 0 228 -270h-371v-5q0 -71 50 -120t136 -49q37 0 70 8.5t48 17.5l14 8l29 -52q-3 -2 -8.5 -6.5t-23.5 -14.5t-39 -18q-53 -21 -119 -21zM381.5 400.5q-35.5 32.5 -92 32.5t-93.5 -31.5t-48 -95.5h274
q-5 62 -40.5 94.5zM231 637q0 -25 -17.5 -42.5t-43.5 -17.5t-43 17.5t-17 43t17.5 43t43 17.5t43 -18t17.5 -43zM447 637q0 -25 -17.5 -42.5t-43.5 -17.5t-43 17.5t-17 43t17.5 43t43 17.5t43 -18t17.5 -43z" />
    <glyph glyph-name="igrave" unicode="&#xec;" horiz-adv-x="332" 
d="M306 0h-263v43l84 33v357h-84v60q39 19 90.5 19t69.5 -24.5t18 -74.5v-337l85 -33v-43zM121 784l101 -189h-89l-129 189h117z" />
    <glyph glyph-name="iacute" unicode="&#xed;" horiz-adv-x="332" 
d="M306 0h-263v43l84 33v357h-84v60q39 19 90.5 19t69.5 -24.5t18 -74.5v-337l85 -33v-43zM210 595h-89l101 189h117z" />
    <glyph glyph-name="icircumflex" unicode="&#xee;" horiz-adv-x="332" 
d="M306 0h-263v43l84 33v357h-84v60q39 19 90.5 19t69.5 -24.5t18 -74.5v-337l85 -33v-43zM323 595h-89l-71 119l-71 -119h-89l111 189h98z" />
    <glyph glyph-name="idieresis" unicode="&#xef;" horiz-adv-x="332" 
d="M306 0h-263v43l84 33v357h-84v60q39 19 90.5 19t69.5 -24.5t18 -74.5v-337l85 -33v-43zM112 637q0 -25 -17.5 -42.5t-43 -17.5t-43 17.5t-17.5 43t17.5 43t42.5 17.5t43 -18t18 -43zM328 637q0 -25 -17.5 -42.5t-43 -17.5t-43 17.5t-17.5 43t17.5 43t42.5 17.5t43 -18
t18 -43z" />
    <glyph glyph-name="eth" unicode="&#xf0;" horiz-adv-x="622" 
d="M503 608q65 -98 65 -273.5t-70.5 -260.5t-194 -85t-188.5 62t-65 167.5t68.5 166.5t171.5 61q35 0 69 -10.5t52 -21t37 -24.5l19 -14q-4 116 -40 180l-119 -80l-36 56l110 75q-36 26 -83.5 26t-79.5 -10.5t-43 -20.5l-11 -10l-20 -74h-76v103q30 47 92.5 70.5t125.5 23.5
q105 0 171 -57l76 52l36 -56zM186.5 326q-41.5 -39 -41.5 -107.5t41.5 -108.5t110.5 -40t115 56t52 155q-1 1 -11.5 12t-23.5 21.5t-32 23.5q-42 27 -105.5 27t-105 -39z" />
    <glyph glyph-name="ntilde" unicode="&#xf1;" horiz-adv-x="655" 
d="M639 0h-263v43l80 33v239q0 59 -19.5 88t-70.5 29q-82 0 -147 -65v-291l85 -33v-43h-263v43l84 33v357h-84v60q39 19 89 19t68.5 -22t20.5 -66q14 18 42 41q59 47 135 47t115 -43.5t39 -118.5v-274l89 -33v-43zM456 617q-33 -21 -61.5 -21t-72 26t-60.5 26q-33 0 -70 -34
l-12 -11l-37 40q-2 0 16 21.5t50.5 43.5t61 22t72 -26t61.5 -26q32 0 68 34l13 11l40 -42q2 0 -17 -21.5t-52 -42.5z" />
    <glyph glyph-name="ograve" unicode="&#xf2;" horiz-adv-x="606" 
d="M303 -11q-111 0 -184 72.5t-73 188.5t73 189t184 73t184 -73t73 -189t-73 -188.5t-184 -72.5zM303 68q70 0 115 48.5t45 130.5t-45.5 134t-114.5 52t-114.5 -52t-45.5 -134t45 -130.5t115 -48.5zM263 784l101 -189h-89l-129 189h117z" />
    <glyph glyph-name="oacute" unicode="&#xf3;" horiz-adv-x="606" 
d="M303 -11q-111 0 -184 72.5t-73 188.5t73 189t184 73t184 -73t73 -189t-73 -188.5t-184 -72.5zM303 68q70 0 115 48.5t45 130.5t-45.5 134t-114.5 52t-114.5 -52t-45.5 -134t45 -130.5t115 -48.5zM319 595h-89l101 189h117z" />
    <glyph glyph-name="ocircumflex" unicode="&#xf4;" horiz-adv-x="606" 
d="M303 -11q-111 0 -184 72.5t-73 188.5t73 189t184 73t184 -73t73 -189t-73 -188.5t-184 -72.5zM303 68q70 0 115 48.5t45 130.5t-45.5 134t-114.5 52t-114.5 -52t-45.5 -134t45 -130.5t115 -48.5zM469 595h-89l-71 119l-71 -119h-89l111 189h98z" />
    <glyph glyph-name="otilde" unicode="&#xf5;" horiz-adv-x="606" 
d="M303 -11q-111 0 -184 72.5t-73 188.5t73 189t184 73t184 -73t73 -189t-73 -188.5t-184 -72.5zM303 68q70 0 115 48.5t45 130.5t-45.5 134t-114.5 52t-114.5 -52t-45.5 -134t45 -130.5t115 -48.5zM429 617q-33 -21 -61.5 -21t-72 26t-61.5 26q-32 0 -68 -34l-13 -11
l-37 40q-2 0 16 21.5t50.5 43.5t61 22t72 -26t60.5 -26q33 0 70 34l12 11l40 -42q2 0 -17 -21.5t-52 -42.5z" />
    <glyph glyph-name="odieresis" unicode="&#xf6;" horiz-adv-x="606" 
d="M303 -11q-111 0 -184 72.5t-73 188.5t73 189t184 73t184 -73t73 -189t-73 -188.5t-184 -72.5zM303 68q70 0 115 48.5t45 130.5t-45.5 134t-114.5 52t-114.5 -52t-45.5 -134t45 -130.5t115 -48.5zM260 637q0 -25 -17.5 -42.5t-43.5 -17.5t-43 17.5t-17 43t17.5 43t43 17.5
t43 -18t17.5 -43zM476 637q0 -25 -17.5 -42.5t-43.5 -17.5t-43 17.5t-17 43t17.5 43t43 17.5t43 -18t17.5 -43z" />
    <glyph glyph-name="divide" unicode="&#xf7;" horiz-adv-x="539" 
d="M468 234h-397v71h397v-71zM265 -11q-25 0 -42 17t-17 42t17 42t42 17t42 -17t17 -42t-17 -42t-42 -17zM265 394q-25 0 -42 17t-17 42t17 42t42 17t42 -17t17 -42t-17 -42t-42 -17z" />
    <glyph glyph-name="oslash" unicode="&#xf8;" horiz-adv-x="606" 
d="M303 -11q-53 0 -104 19l-11 -19h-93l36 61q-85 74 -85 195t73 194t184 73q48 0 93 -16l10 16h93l-33 -55q94 -75 94 -207q0 -116 -73 -188.5t-184 -72.5zM303 68q70 0 115 48.5t45 129t-44 132.5l-178 -299q30 -11 62 -11zM188.5 381q-45.5 -52 -45.5 -128.5t35 -124.5
l176 296q-24 9 -51 9q-69 0 -114.5 -52z" />
    <glyph glyph-name="ugrave" unicode="&#xf9;" horiz-adv-x="636" 
d="M608 68v-60q-39 -19 -88 -19t-68 20.5t-22 60.5q-13 -15 -30 -30t-56.5 -33t-82.5 -18q-78 0 -117 43.5t-39 118.5v282h-84v60q39 19 90.5 19t69.5 -24.5t18 -74.5v-227q0 -59 19.5 -88t70.5 -29t87 19.5t54 40.5v304h-84v60q39 19 90.5 19t69.5 -24.5t18 -74.5v-345h84z
M234 784l101 -189h-89l-129 189h117z" />
    <glyph glyph-name="uacute" unicode="&#xfa;" horiz-adv-x="636" 
d="M608 68v-60q-39 -19 -88 -19t-68 20.5t-22 60.5q-13 -15 -30 -30t-56.5 -33t-82.5 -18q-78 0 -117 43.5t-39 118.5v282h-84v60q39 19 90.5 19t69.5 -24.5t18 -74.5v-227q0 -59 19.5 -88t70.5 -29t87 19.5t54 40.5v304h-84v60q39 19 90.5 19t69.5 -24.5t18 -74.5v-345h84z
M311 595h-89l101 189h117z" />
    <glyph glyph-name="ucircumflex" unicode="&#xfb;" horiz-adv-x="636" 
d="M608 68v-60q-39 -19 -88 -19t-68 20.5t-22 60.5q-13 -15 -30 -30t-56.5 -33t-82.5 -18q-78 0 -117 43.5t-39 118.5v282h-84v60q39 19 90.5 19t69.5 -24.5t18 -74.5v-227q0 -59 19.5 -88t70.5 -29t87 19.5t54 40.5v304h-84v60q39 19 90.5 19t69.5 -24.5t18 -74.5v-345h84z
M439 595h-89l-71 119l-71 -119h-89l111 189h98z" />
    <glyph glyph-name="udieresis" unicode="&#xfc;" horiz-adv-x="636" 
d="M608 68v-60q-39 -19 -88 -19t-68 20.5t-22 60.5q-13 -15 -30 -30t-56.5 -33t-82.5 -18q-78 0 -117 43.5t-39 118.5v282h-84v60q39 19 90.5 19t69.5 -24.5t18 -74.5v-227q0 -59 19.5 -88t70.5 -29t87 19.5t54 40.5v304h-84v60q39 19 90.5 19t69.5 -24.5t18 -74.5v-345h84z
M233 637q0 -25 -17.5 -42.5t-43.5 -17.5t-43 17.5t-17 43t17.5 43t43 17.5t43 -18t17.5 -43zM449 637q0 -25 -17.5 -42.5t-43.5 -17.5t-43 17.5t-17 43t17.5 43t43 17.5t43 -18t17.5 -43z" />
    <glyph glyph-name="yacute" unicode="&#xfd;" horiz-adv-x="628" 
d="M-1 499h260v-44l-68 -24l130 -329l120 329l-68 24v44h250v-44l-80 -26l-224 -535q-32 -76 -79.5 -121t-126.5 -45q-36 0 -63.5 11t-36.5 21l-9 11l27 55q30 -16 82 -16q90 0 138 128l23 61l-195 430l-80 26v44zM342 595h-89l101 189h117z" />
    <glyph glyph-name="thorn" unicode="&#xfe;" horiz-adv-x="591" 
d="M264 -271h-263v43l85 33v893h-84v60q39 19 90.5 19t69.5 -24.5t18 -74.5v-231q48 65 143 65q79 0 146 -54q34 -28 54.5 -79.5t20.5 -119.5t-23 -121.5t-62 -84.5q-79 -63 -184 -63q-48 0 -95 14v-199l84 -33v-43zM275 58q81 0 126.5 50t45.5 152q0 72 -44 118t-94 46
q-83 0 -129 -49v-300l12 -3q53 -14 83 -14z" />
    <glyph glyph-name="ydieresis" unicode="&#xff;" horiz-adv-x="628" 
d="M-1 499h260v-44l-68 -24l130 -329l120 329l-68 24v44h250v-44l-80 -26l-224 -535q-32 -76 -79.5 -121t-126.5 -45q-36 0 -63.5 11t-36.5 21l-9 11l27 55q30 -16 82 -16q90 0 138 128l23 61l-195 430l-80 26v44zM266 637q0 -25 -17.5 -42.5t-43.5 -17.5t-43 17.5t-17 43
t17.5 43t43 17.5t43 -18t17.5 -43zM482 637q0 -25 -17.5 -42.5t-43.5 -17.5t-43 17.5t-17 43t17.5 43t43 17.5t43 -18t17.5 -43z" />
    <glyph glyph-name="Lslash" unicode="&#x141;" horiz-adv-x="637" 
d="M617 0h-566v44l91 33v201l-88 -30v72l88 30v279l-91 33v44h283v-44l-91 -33v-245l124 43v-72l-124 -43v-236h289l33 86h52v-162z" />
    <glyph glyph-name="lslash" unicode="&#x142;" horiz-adv-x="347" 
d="M310 0h-263v43l84 33v211l-115 -39v72l115 39v334h-84v60q39 19 90.5 19t69.5 -24.5t18 -74.5v-282l104 36v-72l-104 -36v-243l85 -33v-43z" />
    <glyph glyph-name="OE" unicode="&#x152;" horiz-adv-x="930" 
d="M870 0h-475q-140 0 -240.5 96.5t-100.5 253.5t101 256.5t240 99.5h475v-162h-52l-33 86h-289v-238h230l19 58h46v-197h-46l-19 67h-230v-244h289l33 86h52v-162zM395 80v545q-110 -1 -173.5 -81t-63.5 -193.5t63.5 -192t173.5 -78.5z" />
    <glyph glyph-name="oe" unicode="&#x153;" horiz-adv-x="976" 
d="M722 -10q-145 0 -212 98q-35 -47 -89 -73t-118 -26q-111 0 -184 72.5t-73 188.5t73 189t184 73q66 0 121 -27.5t90 -77.5q34 50 85.5 77.5t108.5 27.5q228 0 228 -270h-371v-5q0 -71 50 -120t136 -49q37 0 70 8.5t47 17.5l15 8l29 -52q-3 -2 -8.5 -6.5t-23.5 -14.5
t-38 -18q-54 -21 -120 -21zM303 68q70 0 115 48.5t45 130.5t-45.5 134t-114.5 52t-114.5 -52t-45.5 -134t45 -130.5t115 -48.5zM802.5 400.5q-35.5 32.5 -92 32.5t-93.5 -31.5t-48 -95.5h274q-5 62 -40.5 94.5z" />
    <glyph glyph-name="Scaron" unicode="&#x160;" horiz-adv-x="566" 
d="M67 190h60l28 -93q39 -31 127 -31q57 0 91.5 30t34.5 75.5t-37.5 86t-128.5 74.5q-172 65 -172 182q0 98 62 149.5t152 51.5q110 0 188 -37q9 -4 17 -9v-137l-59 -2l-23 81q-41 21 -107 21q-135 0 -135 -86q0 -48 36.5 -79.5t113.5 -59.5q188 -69 188 -220
q0 -88 -59 -143t-171 -55q-51 0 -101 13q-73 20 -105 45v143zM459 990l-111 -189h-98l-111 189h89l71 -119l71 119h89z" />
    <glyph glyph-name="scaron" unicode="&#x161;" horiz-adv-x="478" 
d="M415 357h-63l-14 50q-26 25 -80 25t-83.5 -14t-29.5 -37.5t22 -44t45 -30.5t82 -30t96.5 -53t37.5 -87q0 -72 -52.5 -109.5t-120 -37.5t-116 17t-69.5 34l-20 17v107h60l21 -62q1 -3 16 -10q47 -24 94 -24t72 14.5t25 41t-28 50.5t-93.5 43.5t-110 57t-44.5 87.5
q0 75 52.5 112.5t135.5 37.5q41 0 82 -10t62 -20l21 -10v-115zM409 784l-111 -189h-98l-111 189h89l71 -119l71 119h89z" />
    <glyph glyph-name="Ydieresis" unicode="&#x178;" horiz-adv-x="653" 
d="M478 0h-283v44l91 33v170l-215 374l-82 35v50h277v-57l-87 -10l160 -288l132 273l-83 25v57h259v-57l-80 -23l-180 -350v-199l91 -33v-44zM287 843q0 -25 -17.5 -42.5t-43.5 -17.5t-43 17.5t-17 43t17.5 43t43 17.5t43 -18t17.5 -43zM503 843q0 -25 -17.5 -42.5
t-43.5 -17.5t-43 17.5t-17 43t17.5 43t43 17.5t43 -18t17.5 -43z" />
    <glyph glyph-name="Zcaron" unicode="&#x17d;" horiz-adv-x="670" 
d="M613 0h-556v76q390 494 435 554h-333l-33 -107h-71v183h558v-76l-436 -554h330l33 111h73v-187zM503 990l-111 -189h-98l-111 189h89l71 -119l71 119h89z" />
    <glyph glyph-name="zcaron" unicode="&#x17e;" horiz-adv-x="520" 
d="M472 0h-425v68l306 351h-221l-19 -58h-57v137h402v-79l-291 -337h234l19 60h52v-142zM428 784l-111 -189h-98l-111 189h89l71 -119l71 119h89z" />
    <glyph glyph-name="florin" unicode="&#x192;" horiz-adv-x="692" 
d="M146 -275q-36 0 -65.5 10.5t-40.5 21.5l-12 11l33 52q26 -16 81.5 -16t85.5 32.5t39 118.5l49 464h-78l6 60l82 32l6 60q10 99 66.5 150.5t147.5 51.5q36 0 65.5 -10.5t40.5 -21.5l11 -11l-32 -52q-26 16 -81.5 16t-85 -32.5t-39.5 -118.5l-5 -43h161l-8 -81h-161
l-52 -492q-10 -99 -66.5 -150.5t-147.5 -51.5z" />
    <glyph glyph-name="circumflex" unicode="&#x2c6;" horiz-adv-x="420" 
d="M370 595h-89l-71 119l-71 -119h-89l111 189h98z" />
    <glyph glyph-name="caron" unicode="&#x2c7;" horiz-adv-x="420" 
d="M370 784l-111 -189h-98l-111 189h89l71 -119l71 119h89z" />
    <glyph glyph-name="breve" unicode="&#x2d8;" horiz-adv-x="355" 
d="M235 719h70q0 -59 -30.5 -94.5t-97 -35.5t-97 35.5t-30.5 94.5h69q0 -67 58 -67t58 67z" />
    <glyph glyph-name="ring" unicode="&#x2da;" horiz-adv-x="278" 
d="M139 569q-38 0 -63.5 25.5t-25.5 63.5t25.5 63.5t63.5 25.5t63.5 -25.5t25.5 -63.5t-25.5 -63.5t-63.5 -25.5zM178 658q0 17 -11 28t-28.5 11t-28 -11t-10.5 -28t10.5 -28t28 -11t28.5 11t11 28z" />
    <glyph glyph-name="ogonek" unicode="&#x2db;" horiz-adv-x="262" 
d="M140 -133q30 0 51 23l21 -30q-26 -32 -69.5 -32t-68 20t-24.5 58.5t30 67t60 37.5l29 9l8 -19q-84 -28 -84 -87q0 -47 47 -47z" />
    <glyph glyph-name="tilde" unicode="&#x2dc;" horiz-adv-x="484" 
d="M364 617q-33 -21 -61.5 -21t-72 26t-60.5 26q-33 0 -70 -34l-12 -11l-37 40q-2 0 16 21.5t50.5 43.5t61 22t72 -26t61.5 -26q32 0 68 34l13 11l40 -42q2 0 -17 -21.5t-52 -42.5z" />
    <glyph glyph-name="hungarumlaut" unicode="&#x2dd;" horiz-adv-x="483" 
d="M139 595h-89l101 189h117zM304 595h-89l101 189h117z" />
    <glyph glyph-name="endash" unicode="&#x2013;" horiz-adv-x="667" 
d="M594 235h-521v63h521v-63z" />
    <glyph glyph-name="emdash" unicode="&#x2014;" horiz-adv-x="988" 
d="M915 235h-842v63h842v-63z" />
    <glyph glyph-name="quoteleft" unicode="&#x2018;" horiz-adv-x="207" 
d="M100 774h5q25 0 42 -17t17 -42t-17 -42t-47.5 -17t-47 26.5t-16.5 67.5q0 69 31 101t79 32v-48q-18 0 -32 -13.5t-14 -39.5v-8z" />
    <glyph glyph-name="quoteright" unicode="&#x2019;" horiz-adv-x="248" 
d="M79 548v48q18 0 32 13.5t14 39.5v8h-5q-25 0 -42 17t-17 42t17 42t47.5 17t47 -26.5t16.5 -67.5q0 -69 -31 -101t-79 -32z" />
    <glyph glyph-name="quotesinglbase" unicode="&#x201a;" horiz-adv-x="267" 
d="M89 -120v48q18 0 32 13.5t14 39.5v8h-5q-25 0 -42 17t-17 42t17 42t47.5 17t47 -26.5t16.5 -67.5q0 -69 -31 -101t-79 -32z" />
    <glyph glyph-name="quotedblleft" unicode="&#x201c;" horiz-adv-x="372" 
d="M100 774h5q25 0 42 -17t17 -42t-17 -42t-47.5 -17t-47 26.5t-16.5 67.5q0 69 31 101t79 32v-48q-18 0 -32 -13.5t-14 -39.5v-8zM265 774h5q25 0 42 -17t17 -42t-17 -42t-47.5 -17t-47 26.5t-16.5 67.5q0 69 31 101t79 32v-48q-18 0 -32 -13.5t-14 -39.5v-8z" />
    <glyph glyph-name="quotedblright" unicode="&#x201d;" horiz-adv-x="422" 
d="M79 548v48q18 0 32 13.5t14 39.5v8h-5q-25 0 -42 17t-17 42t17 42t47.5 17t47 -26.5t16.5 -67.5q0 -69 -31 -101t-79 -32zM253 548v48q18 0 32 13.5t14 39.5v8h-5q-25 0 -42 17t-17 42t17 42t47.5 17t47 -26.5t16.5 -67.5q0 -69 -31 -101t-79 -32z" />
    <glyph glyph-name="quotedblbase" unicode="&#x201e;" horiz-adv-x="441" 
d="M89 -120v48q18 0 32 13.5t14 39.5v8h-5q-25 0 -42 17t-17 42t17 42t47.5 17t47 -26.5t16.5 -67.5q0 -69 -31 -101t-79 -32zM263 -120v48q18 0 32 13.5t14 39.5v8h-5q-25 0 -42 17t-17 42t17 42t47.5 17t47 -26.5t16.5 -67.5q0 -69 -31 -101t-79 -32z" />
    <glyph glyph-name="dagger" unicode="&#x2020;" horiz-adv-x="374" 
d="M228 -279h-83v795l-93 -15v110l93 -20v181h83v-182l94 21v-110l-94 16v-796z" />
    <glyph glyph-name="daggerdbl" unicode="&#x2021;" horiz-adv-x="378" 
d="M230 -279h-83v219l-93 -16v110l93 -20v502l-93 -15v110l93 -20v181h83v-182l94 21v-110l-94 16v-504l94 21v-110l-94 16v-219z" />
    <glyph glyph-name="bullet" unicode="&#x2022;" horiz-adv-x="398" 
d="M199 234q-47 0 -80.5 33.5t-33.5 80.5t33.5 80.5t80.5 33.5t80.5 -33.5t33.5 -80.5t-33.5 -80.5t-80.5 -33.5z" />
    <glyph glyph-name="ellipsis" unicode="&#x2026;" horiz-adv-x="610" 
d="M130 -11q-25 0 -42 17t-17 42t17 42t42 17t42 -17t17 -42t-17 -42t-42 -17zM305 -11q-25 0 -42 17t-17 42t17 42t42 17t42 -17t17 -42t-17 -42t-42 -17zM480 -11q-25 0 -42 17t-17 42t17 42t42 17t42 -17t17 -42t-17 -42t-42 -17z" />
    <glyph glyph-name="perthousand" unicode="&#x2030;" horiz-adv-x="1351" 
d="M214 316q-78 0 -127 53.5t-49 144.5t49 146t127 55t128 -55t50 -146t-50 -144.5t-128 -53.5zM215 385q44 0 68.5 37.5t24.5 92t-24.5 92.5t-69.5 38t-69 -38t-24 -92.5t25 -92t69 -37.5zM325 -11h-93l377 726h93zM718 -11q-78 0 -127 53.5t-49 144.5t49 146t127 55
t128 -55t50 -146t-50 -144.5t-128 -53.5zM719 58q44 0 68.5 37.5t24.5 92t-24.5 92.5t-69.5 38t-69 -38t-24 -92.5t25 -92t69 -37.5zM1136 -11q-78 0 -127 53.5t-49 144.5t49 146t127 55t128 -55t50 -146t-50 -144.5t-128 -53.5zM1137 58q44 0 68.5 37.5t24.5 92t-24.5 92.5
t-69.5 38t-69 -38t-24 -92.5t25 -92t69 -37.5z" />
    <glyph glyph-name="guilsinglleft" unicode="&#x2039;" horiz-adv-x="345" 
d="M282 -21l-235 229v81l235 229v-111l-154 -159l154 -158v-111z" />
    <glyph glyph-name="guilsinglright" unicode="&#x203a;" horiz-adv-x="345" 
d="M298 289v-81l-235 -229v111l154 158l-154 159v111z" />
    <glyph glyph-name="Euro" unicode="&#x20ac;" horiz-adv-x="763" 
d="M723 68q-105 -79 -249 -79q-112 0 -203 62.5t-123 178.5h-94v71h386v-71h-183q28 -75 89 -117.5t142 -42.5q51 0 101 15t74 30l24 15zM500 377h-447v71h94q32 127 129 197.5t216 70.5q57 0 105 -17t67 -34l20 -17l-55 -57q-19 19 -58 34.5t-77 15.5q-93 0 -155 -52
t-87 -141h248v-71z" />
    <glyph glyph-name="trademark" unicode="&#x2122;" horiz-adv-x="1014" 
d="M950 418h-162v37l45 19l-20 217l-76 -273h-82l-76 273l-20 -217l61 -19v-37h-177v39l53 19l30 238l-53 19v38h148l72 -273l3 -8l4 8l72 273h146v-38l-52 -19l31 -238l53 -19v-39zM322 418h-167v32l46 17v251h-93l-17 -43h-26v96h350v-96h-26l-16 43h-97v-251l46 -17v-32z
" />
    <glyph glyph-name="notequal" unicode="&#x2260;" horiz-adv-x="529" 
d="M462 165h-197l-34 -123h-93l34 123h-107v71h127l38 136h-165v71h185l32 115h93l-32 -115h119v-71h-139l-38 -136h177v-71z" />
    <glyph glyph-name="fi" unicode="&#xfb01;" horiz-adv-x="729" 
d="M703 0h-263v43l84 33v343h-304v-343l85 -33v-43h-265v43l84 33v343h-78v60l78 32v60q0 99 50.5 150.5t142.5 51.5q36 0 66.5 -10.5t42.5 -21.5l13 -11l-27 -52q-28 16 -83.5 16t-82 -32.5t-26.5 -118.5v-43h304q58 0 76 -24.5t18 -74.5v-325l85 -33v-43zM566 604
q-33 0 -56 23t-23 56t23 56t56 23t56 -23t23 -56t-23 -56t-56 -23z" />
    <glyph glyph-name="fl" unicode="&#xfb02;" horiz-adv-x="730" 
d="M305 0h-265v43l84 33v343h-78v60l78 32v60q0 99 50.5 150.5t142.5 51.5q36 0 66.5 -10.5t42.5 -21.5l13 -11l-27 -52q-28 16 -83.5 16t-82 -32.5t-26.5 -118.5v-43h161v-81h-161v-343l85 -33v-43zM702 0h-263v43l84 33v617h-49v70q24 9 49 9q58 0 76 -24.5t18 -74.5v-597
l85 -33v-43z" />
    </font>
</defs>
</svg>
